<svg width="350" height="266" viewBox="0 0 350 266" fill="none" xmlns="http://www.w3.org/2000/svg">
<path d="M73.2006 40.3644C72.126 38.3803 70.8091 35.5773 69.6106 32.8905C69.0107 31.4884 68.412 30.2037 67.9306 28.9178C67.6905 28.3335 67.4492 27.6319 67.2091 27.0477C66.9689 26.4634 66.8461 25.878 66.6071 25.411C65.8844 23.4236 65.5203 22.1366 65.5203 22.1366C65.5203 22.1366 63.7109 16.8747 62.9605 11.9548C62.468 9.49591 62.3285 7.15102 62.0773 5.39374C62.0617 3.75154 61.9333 2.57965 61.9333 2.57965C61.9333 2.57965 59.8264 3.06882 56.6692 4.15447C53.511 5.12282 49.3038 6.80496 45.216 8.72059C41.0109 10.6373 37.1611 12.9026 34.128 14.691C31.2121 16.4782 29.2302 17.7874 29.2302 17.7874C29.2302 17.7874 27.2483 19.0965 24.4531 21.2346C21.6578 23.3726 17.9309 26.2233 14.3245 29.4248C10.7171 32.509 7.23023 35.944 4.67404 38.549C2.00276 41.3897 0.377204 43.1647 0.377204 43.1647C0.377204 43.1647 2.72875 43.729 6.3706 44.2811C10.0124 44.8333 14.7111 45.4927 19.5248 45.9164C24.3386 46.3401 28.9166 46.6487 32.5529 46.6144C36.073 46.6984 38.419 46.6762 38.419 46.6762C38.419 46.6762 40.765 46.654 44.284 46.6207C47.8019 46.4701 52.3755 46.3096 56.9469 45.9144C61.5183 45.5192 66.0885 45.0068 69.4858 44.5054C72.8831 44.004 75.1084 43.631 75.1084 43.631C75.1084 43.631 74.8705 43.2814 74.6304 42.6971C74.1567 42.2323 73.6786 41.2984 73.2006 40.3644Z" fill="#5DBFBD"/>
<path d="M91.4137 68.3467C89.87 66.367 88.9194 65.0856 88.9194 65.0856C88.9194 65.0856 87.9688 63.8041 86.5423 61.8233C85.8285 60.7743 84.9974 59.7264 84.1641 58.4438C83.3308 57.1613 82.3802 55.8799 81.5458 54.48C77.9758 49.1175 74.9922 43.7494 74.9922 43.7494C74.9922 43.7494 73.4829 45.4061 71.2797 48.125C69.0754 50.7267 66.2946 54.3896 63.5138 58.0526C60.733 61.7155 58.0706 65.4946 56.1042 68.446C54.1378 71.3973 52.8653 73.2863 52.8653 73.2863C52.8653 73.2863 51.5938 75.2927 49.7448 78.2429C47.8957 81.1932 45.4712 85.322 43.163 89.3323C40.8558 93.46 38.5486 97.5877 36.9364 100.77C35.3241 103.953 34.1711 106.075 34.1711 106.075C34.1711 106.075 36.5138 105.701 40.0261 104.964C43.5384 104.227 48.2216 103.244 52.7863 102.145C57.351 101.047 61.9146 99.8303 65.3086 98.977C68.7014 98.0064 70.9245 97.3988 70.9245 97.3988C70.9245 97.3988 73.1466 96.674 76.5394 95.7034C79.9322 94.7328 84.259 93.2842 88.702 91.7171C97.4718 88.7014 106.004 85.336 106.004 85.336C106.004 85.336 101.382 80.4527 97.1107 75.3314C94.976 72.8881 92.9575 70.3263 91.4137 68.3467Z" fill="#5DBFBD"/>
<path d="M125.424 104.509C125.424 104.509 125.07 104.277 124.595 103.695C124.004 103.232 123.293 102.417 122.346 101.605C120.453 99.8632 117.967 97.5405 115.598 95.0994C110.743 90.3356 106.121 85.3349 106.121 85.3349C106.121 85.3349 105.085 87.4563 103.706 90.5194C102.211 93.7009 100.374 97.8242 98.5378 102.182C96.7009 106.423 94.9824 110.779 93.7221 113.959C92.4629 117.255 91.6617 119.374 91.6617 119.374C91.6617 119.374 90.8617 121.611 89.6025 124.907C88.4605 128.203 86.8605 132.676 85.3777 137.148C83.895 141.62 82.5296 146.09 81.506 149.502C80.4825 152.914 79.7998 155.149 79.7998 155.149C79.7998 155.149 82.0196 154.19 85.2918 152.868C88.564 151.547 92.8863 149.629 97.2087 147.711C101.531 145.793 105.735 143.759 108.888 142.204C112.04 140.65 114.142 139.574 114.142 139.574C114.142 139.574 116.243 138.498 119.396 136.943C122.549 135.388 126.634 133.238 130.719 130.971C138.888 126.553 146.822 121.903 146.822 121.903C146.822 121.903 141.269 117.732 136.065 113.324C130.512 109.153 125.424 104.509 125.424 104.509Z" fill="#5DBFBD"/>
<path d="M158.38 178.103C161.294 176.081 163.159 174.773 163.159 174.773C163.159 174.773 165.023 173.465 167.937 171.443C170.733 169.422 174.579 166.688 178.188 163.838C185.643 158.254 192.744 152.438 192.744 152.438C192.744 152.438 186.73 149.093 180.713 145.514C177.763 143.665 174.814 141.933 172.57 140.429C170.328 139.042 168.912 138.117 168.912 138.117C168.912 138.117 167.496 137.192 165.252 135.688C163.127 134.183 160.176 132.334 157.458 130.249C151.79 126.314 146.353 122.025 146.353 122.025C146.353 122.025 143.857 130.964 141.713 139.9C140.582 144.368 139.57 148.953 138.898 152.361C138.226 155.77 137.662 158.121 137.662 158.121C137.662 158.121 137.215 160.471 136.543 163.88C135.872 167.288 135.094 171.871 134.317 176.57C133.54 181.27 132.88 185.852 132.327 189.376C131.891 192.9 131.561 195.249 131.561 195.249C131.561 195.249 133.544 194.057 136.576 192.151C139.608 190.246 143.573 187.745 147.538 185.244C151.62 182.742 155.466 180.007 158.38 178.103Z" fill="#5DBFBD"/>
<path d="M230.278 189.036C236.784 182.405 242.938 175.66 242.938 175.66C242.938 175.66 236.463 173.258 230.104 170.62C223.744 167.982 217.499 165.108 217.499 165.108C217.499 165.108 211.255 162.235 205.007 159.009C198.877 155.9 192.745 152.556 192.745 152.556C192.745 152.556 192.532 154.787 192.096 158.31C191.659 161.716 191.233 166.295 190.808 170.992C189.957 180.267 189.458 189.54 189.458 189.54C189.458 189.54 189.363 191.887 189.162 195.408C188.961 198.929 188.888 203.622 188.698 208.317C188.552 217.703 188.642 227.204 188.642 227.204C188.642 227.204 195.975 221.152 202.955 214.986C210.052 208.701 216.795 202.303 216.795 202.303C216.795 202.303 223.888 195.666 230.278 189.036Z" fill="#5DBFBD"/>
<path d="M245.4 212.707C245.4 212.707 246.309 221.966 247.571 231.339C248.831 240.595 250.562 249.963 250.562 249.963C250.562 249.963 256.947 242.864 262.861 235.535C268.891 228.205 274.452 220.762 274.452 220.762C274.452 220.762 280.13 213.317 285.337 205.76C290.661 198.085 295.515 190.414 295.515 190.414C295.515 190.414 293.87 190.077 291.401 189.514C288.933 189.068 285.641 188.278 282.232 187.489C275.647 185.909 269.061 184.094 269.061 184.094C269.061 184.094 262.474 182.28 256.002 180.112C249.529 177.944 243.054 175.542 243.054 175.542C243.054 175.542 243.258 184.69 243.932 193.952C244.373 203.332 245.4 212.707 245.4 212.707Z" fill="#5DBFBD"/>
<path d="M304.068 226.464C304.068 226.464 306.616 235.356 309.516 244.361C312.416 253.25 315.903 262.249 315.903 262.249C315.903 262.249 320.87 254.108 325.485 245.853C330.099 237.597 334.243 229.229 334.243 229.229C334.243 229.229 338.387 220.861 342.061 212.38C345.735 203.899 349.055 195.304 349.055 195.304C349.055 195.304 347.413 195.319 344.95 195.342C342.487 195.366 339.083 195.163 335.797 195.077C332.51 194.873 329.108 194.788 326.641 194.46C324.175 194.248 322.415 194.148 322.415 194.148C322.415 194.148 320.77 193.929 318.188 193.718C315.722 193.507 312.315 192.953 309.027 192.632C302.331 191.64 295.633 190.412 295.633 190.412C295.633 190.412 297.36 199.429 299.44 208.442C301.519 217.456 304.068 226.464 304.068 226.464Z" fill="#5DBFBD"/>
</svg>
