<svg width="159" height="152" viewBox="0 0 159 152" fill="none" xmlns="http://www.w3.org/2000/svg">
<path d="M47.6881 45.9694C47.6881 45.9694 39.9488 39.5335 35.2237 32.2015C30.4987 24.9103 24.0628 21.896 18.0343 27.0284C12.0058 32.2015 11.1504 49.3909 34.8164 63.1588" fill="#FBC993"/>
<path d="M31.4763 47.5987C26.0588 47.1099 20.2339 44.6251 17.0567 40.0223C15.9569 38.4337 15.1015 36.7229 14.4498 34.9306C13.8388 42.6292 18.5231 53.7087 34.7757 63.1588L47.6881 45.9693C47.6881 45.9693 46.3846 44.8695 44.5516 43.118C41.2522 46.2545 37.0567 48.0875 31.4763 47.5987Z" fill="#F8BA8D"/>
<path d="M23.1667 35.0529C23.1667 35.0529 23.3704 35.3787 23.6148 35.949C23.8999 36.4785 24.2665 37.2932 24.7146 38.23C24.9182 38.6781 25.2034 39.1669 25.4885 39.6964C25.7329 40.226 26.0588 40.7148 26.3439 41.285C26.6698 41.8146 26.9956 42.3848 27.3622 42.9144C27.6881 43.4439 28.0954 43.9734 28.462 44.5029C28.8694 44.9917 29.2767 45.5213 29.684 45.9286C30.0914 46.4174 30.5802 46.784 30.9875 47.1913C31.4763 47.5579 31.8836 47.9653 32.3724 48.2097C32.6168 48.3726 32.8205 48.5355 33.0649 48.6577C33.3093 48.7799 33.5129 48.9021 33.7166 49.0243C34.1647 49.2687 34.572 49.4317 34.9386 49.6353C35.3052 49.7983 35.6718 49.9612 35.9569 50.0427C36.5272 50.2463 36.8938 50.4093 36.8938 50.4093C36.8938 50.4093 36.5272 50.4907 35.9162 50.5722C35.7533 50.5722 35.5903 50.6129 35.3867 50.6129C35.183 50.6129 34.9793 50.6129 34.7757 50.6129C34.3276 50.6129 33.7981 50.5722 33.2685 50.45C32.9834 50.4093 32.6983 50.3278 32.4131 50.2871C32.128 50.2056 31.8429 50.0834 31.517 49.9612C30.906 49.7575 30.295 49.3909 29.684 49.0651C29.1138 48.6577 28.462 48.2504 27.9732 47.7209C27.403 47.2321 26.9549 46.6211 26.4661 46.0508C26.018 45.4398 25.6107 44.8288 25.2441 44.1771C24.8775 43.5661 24.5924 42.8736 24.3072 42.2626C24.0628 41.6109 23.8184 40.9999 23.6962 40.3889C23.5333 39.7779 23.4111 39.2076 23.3296 38.6781C23.2074 38.1486 23.1667 37.6598 23.1667 37.2117C23.126 36.7636 23.126 36.3971 23.126 36.0712C23.126 35.4195 23.1667 35.0529 23.1667 35.0529Z" fill="#E6AD83"/>
<path d="M25.7329 29.6761C24.7961 29.6353 23.8592 29.6353 22.9631 29.6353C22.2299 29.5946 20.6413 29.5946 20.1932 28.8614C19.9488 28.4541 20.1525 27.7209 20.3969 27.3543C21.6189 25.6435 25.4885 25.562 27.1993 26.2952C28.9508 27.0284 32.3724 28.9836 31.8836 31.3461C31.5985 32.6903 29.9692 31.2646 29.4804 30.8573C28.4213 30.0019 27.0771 29.7575 25.7329 29.6761Z" fill="#FFEABF"/>
<path d="M110.988 45.9694C110.988 45.9694 118.727 39.5335 123.452 32.2015C128.177 24.9103 134.613 21.896 140.641 27.0284C146.67 32.2015 147.525 49.3909 123.859 63.1588" fill="#FBC993"/>
<path d="M127.199 47.5987C132.617 47.1099 138.442 44.6251 141.619 40.0223C142.719 38.4337 143.574 36.7229 144.226 34.9306C144.837 42.6292 140.153 53.7087 123.9 63.1588L110.988 45.9693C110.988 45.9693 112.291 44.8695 114.124 43.118C117.423 46.2545 121.66 48.0875 127.199 47.5987Z" fill="#F8BA8D"/>
<path d="M135.509 35.0529C135.509 35.0529 135.305 35.3787 135.061 35.949C134.776 36.4785 134.409 37.2932 133.961 38.23C133.757 38.6781 133.472 39.1669 133.187 39.6964C132.943 40.226 132.617 40.7148 132.332 41.285C132.006 41.8146 131.68 42.3848 131.313 42.9144C130.988 43.4439 130.58 43.9734 130.214 44.5029C129.806 44.9917 129.399 45.5213 128.992 45.9286C128.584 46.4174 128.096 46.784 127.688 47.1913C127.199 47.5579 126.792 47.9653 126.303 48.2097C126.059 48.3726 125.855 48.5355 125.611 48.6577C125.366 48.7799 125.163 48.9021 124.959 49.0243C124.511 49.2687 124.104 49.4317 123.737 49.6353C123.37 49.7983 123.004 49.9612 122.719 50.0427C122.148 50.2463 121.782 50.4093 121.782 50.4093C121.782 50.4093 122.148 50.4907 122.759 50.5722C122.922 50.5722 123.085 50.6129 123.289 50.6129C123.493 50.6129 123.696 50.6129 123.9 50.6129C124.348 50.6129 124.878 50.5722 125.407 50.45C125.692 50.4093 125.977 50.3278 126.263 50.2871C126.548 50.2056 126.833 50.0834 127.159 49.9612C127.77 49.7575 128.381 49.3909 128.992 49.0651C129.562 48.6577 130.214 48.2504 130.702 47.7209C131.273 47.2321 131.721 46.6211 132.21 46.0508C132.658 45.4398 133.065 44.8288 133.432 44.1771C133.798 43.5661 134.083 42.8736 134.368 42.2626C134.613 41.6109 134.816 40.9999 134.979 40.3889C135.142 39.7779 135.265 39.2076 135.346 38.6781C135.468 38.1486 135.509 37.6598 135.509 37.2117C135.55 36.7636 135.55 36.3971 135.55 36.0712C135.55 35.4195 135.509 35.0529 135.509 35.0529Z" fill="#E6AD83"/>
<path d="M132.943 29.6761C133.88 29.6353 134.816 29.6353 135.713 29.6353C136.446 29.5946 138.034 29.5946 138.482 28.8614C138.727 28.4541 138.523 27.7209 138.279 27.3543C137.057 25.6435 133.187 25.562 131.476 26.2952C129.725 27.0284 126.303 28.9836 126.792 31.3461C127.077 32.6903 128.706 31.2646 129.195 30.8573C130.254 30.0019 131.599 29.7575 132.943 29.6761Z" fill="#FFEABF"/>
<path d="M132.087 96.397C132.169 75.0528 125.122 52.894 107.444 39.6964C99.7452 33.9123 89.3175 30.2463 79.5415 30.4092C59.2971 30.6536 42.2299 43.6068 33.513 61.4479C30.7839 67.0284 28.7879 73.4642 27.6881 79.5742C25.122 93.7901 24.959 110.491 31.3541 123.77C34.6128 130.531 40.3562 138.067 46.5476 142.426C55.2645 148.536 68.5435 151.142 78.9305 151.142C84.8368 151.142 90.8246 150.45 96.568 148.658C119.582 141.489 131.965 120.674 132.087 96.397Z" fill="#FDD396"/>
<path d="M128.177 99.0447C122.719 94.2789 115.631 92.4052 108.584 91.3868C97.79 89.839 87.9733 91.7942 77.4234 93.7494C63.5741 96.3156 47.8104 97.2524 40.3154 82.7514C31.7207 66.1323 43.9 50.4092 57.3012 40.8777C64.0629 36.0712 71.7615 31.8756 80.234 31.5498C88.1362 31.2646 95.7941 33.7494 102.271 38.23C114.572 46.784 123.37 59.9001 129.277 73.6272C125.774 60.3481 118.808 48.1282 107.444 39.6557C99.7452 33.9123 89.3175 30.2463 79.5415 30.4092C59.2971 30.6536 42.2299 43.6068 33.513 61.4479C30.7839 67.0284 28.7879 73.4642 27.6881 79.5742C25.122 93.7901 24.959 110.491 31.3541 123.77C34.6128 130.531 40.3562 138.067 46.5476 142.426C55.2645 148.536 68.5436 151.142 78.9305 151.142C84.8368 151.142 90.8246 150.45 96.568 148.658C117.505 142.14 129.684 124.299 131.761 102.833C130.662 101.489 129.48 100.185 128.177 99.0447Z" fill="#FAC491"/>
<path d="M85.6922 94.2382C73.3093 94.116 60.8857 95.2565 48.7879 97.9857C41.9447 99.5335 35.3052 101.367 28.8694 104.259C28.0547 104.625 27.2401 104.992 26.4661 105.358C27.1179 111.794 28.6657 118.108 31.3948 123.77C34.6535 130.531 40.3969 138.067 46.5883 142.426C55.3052 148.536 68.5843 151.142 78.9712 151.142C84.8775 151.142 90.8653 150.45 96.6087 148.658C116.364 142.507 128.299 126.295 131.354 106.499C118.157 97.619 101.782 94.4011 85.6922 94.2382Z" fill="#BF9C87"/>
<path d="M83.9814 146.947C75.9162 146.091 67.9325 144.014 60.8042 140.104C53.7981 136.275 46.0588 130.572 42.0262 123.525C31.4356 105.073 63.8185 97.4153 75.7126 96.0304C94.8572 93.7901 114.653 97.3746 131.11 107.599C131.191 107.232 131.232 106.865 131.273 106.54C118.116 97.7005 101.782 94.4826 85.6515 94.3196C73.2686 94.1974 60.8449 95.3379 48.7472 98.0671C41.904 99.6149 35.2645 101.448 28.8286 104.34C28.014 104.707 27.1993 105.073 26.4254 105.44C27.0771 111.876 28.625 118.189 31.3541 123.851C34.6128 130.613 40.3561 138.149 46.5476 142.507C55.2645 148.617 68.5435 151.224 78.9305 151.224C84.8368 151.224 90.8246 150.531 96.5679 148.739C98.6453 148.087 100.641 147.314 102.556 146.458C96.405 147.354 90.1728 147.599 83.9814 146.947Z" fill="#B0907D"/>
<path d="M116.731 90.9388C116.731 93.4235 112.128 95.4194 106.507 95.4194C100.845 95.4194 96.2828 93.4235 96.2828 90.9388C96.2828 88.4541 100.886 86.4581 106.507 86.4581C112.128 86.4581 116.731 88.4541 116.731 90.9388Z" fill="#E8A894"/>
<path d="M62.2706 91.2646C62.2706 93.7494 57.6678 95.7453 52.0466 95.7453C46.3847 95.7453 41.8226 93.7494 41.8226 91.2646C41.8226 88.7799 46.4254 86.784 52.0466 86.784C57.7085 86.784 62.2706 88.7799 62.2706 91.2646Z" fill="#E8A894"/>
<path d="M66.8327 79.6964C66.8327 84.0956 63.9407 87.6394 60.3969 87.6394C56.8531 87.6394 53.961 84.0956 53.961 79.6964C53.961 75.2972 56.8531 71.7534 60.3969 71.7534C63.9407 71.7534 66.8327 75.2972 66.8327 79.6964Z" fill="#423D33"/>
<path d="M66.9957 79.3297C66.9957 80.8776 65.7737 82.0996 64.2258 82.0996C62.678 82.0996 61.456 80.8776 61.456 79.3297C61.456 77.7819 62.678 76.5599 64.2258 76.5599C65.7737 76.5599 66.9957 77.8226 66.9957 79.3297Z" fill="white"/>
<path d="M61.3338 75.786C61.3338 76.5192 60.7635 77.0895 60.0303 77.0895C59.2971 77.0895 58.7268 76.5192 58.7268 75.786C58.7268 75.0528 59.3378 74.4825 60.0303 74.4825C60.7635 74.4825 61.3338 75.0528 61.3338 75.786Z" fill="white"/>
<path d="M103.533 79.6964C103.533 84.0956 100.641 87.6394 97.0975 87.6394C93.5537 87.6394 90.6617 84.0956 90.6617 79.6964C90.6617 75.2972 93.5537 71.7534 97.0975 71.7534C100.641 71.7534 103.533 75.2972 103.533 79.6964Z" fill="#423D33"/>
<path d="M103.696 79.3297C103.696 80.8776 102.474 82.0996 100.926 82.0996C99.3785 82.0996 98.1565 80.8776 98.1565 79.3297C98.1565 77.7819 99.3785 76.5599 100.926 76.5599C102.474 76.5599 103.696 77.8226 103.696 79.3297Z" fill="white"/>
<path d="M98.0343 75.786C98.0343 76.5192 97.4233 77.0895 96.7309 77.0895C95.9977 77.0895 95.4274 76.5192 95.4274 75.786C95.4274 75.0528 95.9977 74.4825 96.7309 74.4825C97.4641 74.4825 98.0343 75.0528 98.0343 75.786Z" fill="white"/>
<path d="M43.6148 121.326C45.2441 125.358 47.1179 129.187 50.1728 132.364C53.1464 135.46 57.179 137.212 61.1301 138.556C62.4335 139.004 63.0038 136.927 61.7003 136.479C57.9936 135.175 54.5313 133.586 51.68 130.817C48.8694 128.087 47.1586 124.299 45.6922 120.755C45.2034 119.493 43.126 120.063 43.6148 121.326Z" fill="#9B806E"/>
<path d="M60.1525 107.314C60.1525 110.043 61.7411 112.242 63.737 112.242C65.7329 112.242 67.3215 110.043 67.3215 107.314C67.3215 104.584 65.7329 102.385 63.737 102.385C61.7411 102.344 60.1525 104.544 60.1525 107.314Z" fill="#836C5E"/>
<path d="M60.7227 104.584C61.3745 103.24 62.4743 102.344 63.6963 102.344C65.6922 102.344 67.2808 104.544 67.2808 107.273C67.2808 108.169 67.1179 108.984 66.8327 109.717C66.3032 105.643 64.7146 104.34 60.7227 104.584Z" fill="#665548"/>
<path d="M71.3134 100.755C71.3134 100.755 70.9875 100.674 70.4987 100.552C70.2543 100.47 69.9285 100.389 69.6026 100.307C69.2768 100.226 68.9102 100.104 68.4621 100.022C68.0548 99.9408 67.6067 99.8186 67.1586 99.7371C66.7106 99.6149 66.2218 99.6149 65.733 99.5335C65.2442 99.4927 64.7146 99.4113 64.2258 99.452C63.6963 99.4113 63.2075 99.452 62.678 99.4927C62.1892 99.5742 61.6596 99.6149 61.1708 99.6964C60.682 99.7778 60.1932 99.9408 59.7452 100.063C59.2971 100.267 58.8491 100.389 58.4417 100.593C58.2381 100.674 58.0344 100.796 57.8307 100.878C57.6271 101 57.4641 101.081 57.2605 101.204C56.8939 101.407 56.568 101.611 56.2829 101.815C55.9977 102.018 55.7126 102.181 55.5089 102.344C55.1016 102.67 54.8165 102.833 54.8165 102.833C54.8165 102.833 54.8979 102.548 55.1016 102.018C55.1831 101.774 55.3053 101.448 55.5497 101.122C55.7533 100.796 55.957 100.389 56.2829 100.063C56.4458 99.9001 56.6087 99.6964 56.7717 99.4927C56.9346 99.2891 57.179 99.1261 57.3827 98.9632C57.79 98.5966 58.3195 98.3115 58.8083 97.9856C59.3786 97.7412 59.9488 97.4561 60.5598 97.2931C61.1708 97.0895 61.8226 97.008 62.4743 96.9265C63.126 96.8858 63.7778 96.8858 64.3888 96.9673C64.7146 96.9673 64.9998 97.0487 65.3256 97.1302C65.6108 97.2117 65.9366 97.2524 66.2218 97.3339C66.792 97.5375 67.3216 97.7005 67.8104 97.9449C68.2992 98.1485 68.7472 98.4337 69.1138 98.7188C69.5211 98.9632 69.847 99.2483 70.1321 99.4927C70.4173 99.7371 70.6617 99.9815 70.8246 100.185C71.1505 100.511 71.3134 100.755 71.3134 100.755Z" fill="#D6AD98"/>
<path d="M100.682 107.314C100.682 110.043 99.0933 112.242 97.0974 112.242C95.1015 112.242 93.5129 110.043 93.5129 107.314C93.5129 104.584 95.1015 102.385 97.0974 102.385C99.0933 102.344 100.682 104.544 100.682 107.314Z" fill="#836C5E"/>
<path d="M100.112 104.584C99.46 103.24 98.3602 102.344 97.1382 102.344C95.1422 102.344 93.5536 104.544 93.5536 107.273C93.5536 108.169 93.7166 108.984 94.0017 109.717C94.5312 105.643 96.1198 104.34 100.112 104.584Z" fill="#665548"/>
<path d="M89.5211 100.756C89.5211 100.756 89.7248 100.511 90.0506 100.104C90.2136 99.9001 90.4172 99.6557 90.7431 99.4113C91.0282 99.1669 91.3541 98.8818 91.7614 98.6374C92.128 98.393 92.5761 98.1078 93.0649 97.8634C93.5537 97.619 94.0832 97.4154 94.6535 97.2524C94.9386 97.171 95.2238 97.1302 95.5496 97.0488C95.8348 96.9673 96.1606 96.9266 96.4865 96.8859C97.0975 96.8044 97.7492 96.8044 98.401 96.8451C99.0527 96.9266 99.7044 97.0081 100.315 97.2117C100.926 97.3747 101.497 97.6598 102.067 97.9042C102.596 98.2301 103.085 98.5152 103.493 98.8818C103.696 99.0854 103.9 99.2484 104.104 99.4113C104.267 99.615 104.429 99.7779 104.592 99.9816C104.918 100.348 105.122 100.715 105.326 101.041C105.529 101.367 105.651 101.652 105.774 101.937C105.977 102.426 106.059 102.751 106.059 102.751C106.059 102.751 105.774 102.589 105.366 102.263C105.163 102.1 104.918 101.937 104.592 101.733C104.307 101.529 103.981 101.326 103.615 101.122C103.452 101.041 103.248 100.918 103.045 100.796C102.841 100.715 102.637 100.593 102.434 100.511C102.026 100.307 101.578 100.185 101.13 99.9816C100.641 99.8594 100.193 99.6965 99.7044 99.615C99.2156 99.4928 98.6861 99.4521 98.1973 99.4113C97.6678 99.3706 97.179 99.3298 96.6494 99.3706C96.1199 99.3706 95.6311 99.452 95.1423 99.452C94.6535 99.5335 94.1647 99.5742 93.7166 99.6557C93.2686 99.7372 92.8205 99.8186 92.4132 99.9408C92.0058 100.022 91.6392 100.145 91.2726 100.226C90.9468 100.307 90.6209 100.389 90.3765 100.47C89.8063 100.715 89.5211 100.756 89.5211 100.756Z" fill="#D6AD98"/>
<path d="M41.3745 122.385C44.959 121.652 47.9733 118.963 48.7065 115.338C48.9916 113.994 46.9142 113.423 46.6291 114.768C46.0181 117.741 43.6963 119.737 40.8042 120.307C39.46 120.593 40.0303 122.67 41.3745 122.385Z" fill="#9B806E"/>
<path d="M79.0527 98.0264C80.0303 98.0264 80.0303 96.5192 79.0527 96.5192C78.0751 96.5192 78.0751 98.0264 79.0527 98.0264Z" fill="#846E5F"/>
<path d="M80.3561 104.747C81.3337 104.747 81.3337 103.24 80.3561 103.24C79.3785 103.24 79.3785 104.747 80.3561 104.747Z" fill="#846E5F"/>
<path d="M84.0628 99.1669C85.0404 99.1669 85.0404 97.6597 84.0628 97.6597C83.126 97.6597 83.126 99.1669 84.0628 99.1669Z" fill="#846E5F"/>
<path d="M89.684 104.91C90.6616 104.91 90.6616 103.403 89.684 103.403C88.7064 103.403 88.7064 104.91 89.684 104.91Z" fill="#846E5F"/>
<path d="M72.9019 106.458C73.8795 106.458 73.8795 104.951 72.9019 104.951C71.9243 104.951 71.9243 106.458 72.9019 106.458Z" fill="#846E5F"/>
<path d="M76.2013 102.303C77.1789 102.303 77.1789 100.796 76.2013 100.796C75.2237 100.796 75.2237 102.303 76.2013 102.303Z" fill="#846E5F"/>
<path d="M77.627 110.613C78.6046 110.613 78.6046 109.106 77.627 109.106C76.6494 109.106 76.6494 110.613 77.627 110.613Z" fill="#846E5F"/>
<path d="M89.5211 109.187C90.4987 109.187 90.4987 107.68 89.5211 107.68C88.5435 107.68 88.5435 109.187 89.5211 109.187Z" fill="#846E5F"/>
<path d="M87.8103 98.5967C88.7879 98.5967 88.7879 97.0895 87.8103 97.0895C86.8327 97.0895 86.8327 98.5967 87.8103 98.5967Z" fill="#846E5F"/>
<path d="M84.348 109.065C85.3256 109.065 85.3256 107.558 84.348 107.558C83.4111 107.558 83.4111 109.065 84.348 109.065Z" fill="#846E5F"/>
<path d="M69.1545 112.202C70.1321 112.202 70.1321 110.694 69.1545 110.694C68.2176 110.694 68.2176 112.202 69.1545 112.202Z" fill="#846E5F"/>
<path d="M69.4396 102.874C70.4172 102.874 70.4172 101.367 69.4396 101.367C68.5028 101.367 68.5028 102.874 69.4396 102.874Z" fill="#846E5F"/>
<path d="M51.8429 106.906C52.8205 106.906 52.8205 105.399 51.8429 105.399C50.8653 105.399 50.8653 106.906 51.8429 106.906Z" fill="#846E5F"/>
<path d="M51.2726 100.022C52.2502 100.022 52.2502 98.5152 51.2726 98.5152C50.295 98.5152 50.295 100.022 51.2726 100.022Z" fill="#846E5F"/>
<path d="M44.1036 103.607C45.0812 103.607 45.0812 102.1 44.1036 102.1C43.126 102.1 43.126 103.607 44.1036 103.607Z" fill="#846E5F"/>
<path d="M55.2645 111.183C56.2421 111.183 56.2421 109.676 55.2645 109.676C54.2869 109.676 54.2869 111.183 55.2645 111.183Z" fill="#846E5F"/>
<path d="M105.57 112.079C106.548 112.079 106.548 110.572 105.57 110.572C104.592 110.572 104.592 112.079 105.57 112.079Z" fill="#846E5F"/>
<path d="M105 107.314C105.977 107.314 105.977 105.806 105 105.806C104.022 105.806 104.022 107.314 105 107.314Z" fill="#846E5F"/>
<path d="M110.295 104.747C111.273 104.747 111.273 103.24 110.295 103.24C109.317 103.24 109.317 104.747 110.295 104.747Z" fill="#846E5F"/>
<path d="M110.01 100.593C110.987 100.593 110.987 99.0854 110.01 99.0854C109.032 99.0854 109.032 100.593 110.01 100.593Z" fill="#846E5F"/>
<path d="M110.458 110.206C111.436 110.206 111.436 108.698 110.458 108.698C109.48 108.698 109.48 110.206 110.458 110.206Z" fill="#846E5F"/>
<path d="M116.324 103.159C117.301 103.159 117.301 101.652 116.324 101.652C115.346 101.652 115.346 103.159 116.324 103.159Z" fill="#846E5F"/>
<path d="M71.7614 97.8634C72.739 97.8634 72.739 96.3563 71.7614 96.3563C70.7838 96.3563 70.7838 97.8634 71.7614 97.8634Z" fill="#846E5F"/>
<path d="M85.3663 104.177C86.3439 104.177 86.3439 102.67 85.3663 102.67C84.3887 102.67 84.3887 104.177 85.3663 104.177Z" fill="#846E5F"/>
<path d="M114.735 107.599C115.713 107.599 115.713 106.091 114.735 106.091C113.757 106.091 113.757 107.599 114.735 107.599Z" fill="#846E5F"/>
<path d="M45.7329 107.558C46.7105 107.558 46.7105 106.051 45.7329 106.051C44.7553 106.051 44.7553 107.558 45.7329 107.558Z" fill="#846E5F"/>
<path d="M48.9508 103.24C49.9284 103.24 49.9284 101.733 48.9508 101.733C48.014 101.733 48.014 103.24 48.9508 103.24Z" fill="#846E5F"/>
<path d="M56.0791 106.051C57.0567 106.051 57.0567 104.544 56.0791 104.544C55.1015 104.544 55.1015 106.051 56.0791 106.051Z" fill="#846E5F"/>
<path d="M74.1239 99.1669C75.1015 99.1669 75.1015 97.6597 74.1239 97.6597C73.1463 97.6597 73.1463 99.1669 74.1239 99.1669Z" fill="#846E5F"/>
<path d="M106.792 100.47C107.77 100.47 107.77 98.9632 106.792 98.9632C105.814 98.9632 105.814 100.47 106.792 100.47Z" fill="#846E5F"/>
<path d="M113.472 102.588C114.45 102.588 114.45 101.081 113.472 101.081C112.495 101.081 112.495 102.588 113.472 102.588Z" fill="#846E5F"/>
<path d="M120.112 105.399C121.089 105.399 121.089 103.892 120.112 103.892C119.134 103.892 119.134 105.399 120.112 105.399Z" fill="#846E5F"/>
<path d="M90.2543 113.138C91.2319 113.138 91.2319 111.631 90.2543 111.631C89.2767 111.631 89.2767 113.138 90.2543 113.138Z" fill="#846E5F"/>
<path d="M82.7187 113.342C83.6963 113.342 83.6963 111.835 82.7187 111.835C81.7411 111.835 81.7411 113.342 82.7187 113.342Z" fill="#846E5F"/>
<path d="M73.6759 114.849C74.6535 114.849 74.6535 113.342 73.6759 113.342C72.6983 113.342 72.6983 114.849 73.6759 114.849Z" fill="#846E5F"/>
<path d="M73.6759 114.849C74.6535 114.849 74.6535 113.342 73.6759 113.342C72.6983 113.342 72.6983 114.849 73.6759 114.849Z" fill="#846E5F"/>
<path d="M61.8633 34.116C64.0221 29.839 66.5069 24.34 70.1729 20.9999C71.0282 20.1852 73.9203 17.7005 75.346 18.6373C77.7492 20.1852 73.35 23.6883 75.9162 25.0732C78.4417 26.4174 80.682 21.7738 83.6555 22.507C87.0771 23.3217 83.6555 26.4989 83.8592 28.3726C85.8144 28.4948 89.7655 27.5987 90.9875 29.5539C92.128 31.3869 90.2543 33.5457 90.4987 35.4194" fill="#FAC491"/>
<path d="M60.1526 40.3482C60.1526 40.3482 51.9652 29.5946 53.7167 20.1445L41.2523 24.4622L52.4132 43.8105C52.4132 43.8105 56.6902 46.3767 60.1526 40.3482Z" fill="#836C5E"/>
<path d="M53.6352 25.2361C53.4316 23.5253 53.3908 21.8145 53.7167 20.1445L41.2523 24.4622L52.4132 43.8105C52.4132 43.8105 52.9428 44.1363 53.7574 44.2585C51.6393 38.0671 51.232 31.3868 53.6352 25.2361Z" fill="#766254"/>
<path d="M55.4442 17.843C57.4862 11.1045 53.6788 3.98641 46.9403 1.94442C40.2017 -0.097569 33.0836 3.70976 31.0417 10.4483C28.9997 17.1869 32.807 24.305 39.5456 26.3469C46.2841 28.3889 53.4022 24.5816 55.4442 17.843Z" fill="#8E705E"/>
<path d="M47.0365 19.9408C40.6006 22.1404 34.287 19.2483 30.4581 14.0345C30.4581 14.0752 30.4581 14.116 30.4581 14.1567C30.4581 21.2035 36.1607 26.9062 43.2076 26.9062C50.2544 26.9062 55.9571 21.2035 55.9571 14.1567C55.9571 13.9123 55.9163 13.6679 55.9163 13.4235C53.5945 16.3563 50.621 18.7188 47.0365 19.9408Z" fill="#816554"/>
<path d="M49.5212 6.17301C49.5212 7.88381 47.8104 9.26873 45.733 9.26873C43.6149 9.26873 41.9449 7.88381 41.9449 6.17301C41.9449 4.46222 43.6557 3.0773 45.733 3.0773C47.8512 3.11803 49.5212 4.50295 49.5212 6.17301Z" fill="#AE9282"/>
<path d="M96.2014 39.6149C96.2014 39.6149 104.389 28.8614 102.637 19.4113L115.102 23.729L103.941 43.0365C103.941 43.0365 99.623 45.6027 96.2014 39.6149Z" fill="#836C5E"/>
<path d="M102.719 24.4622C102.922 22.7514 102.963 21.0406 102.637 19.3706L115.102 23.6883L103.941 43.0366C103.941 43.0366 103.411 43.3624 102.597 43.4846C104.715 37.2932 105.081 30.6129 102.719 24.4622Z" fill="#766254"/>
<path d="M100.356 13.3828C100.356 20.4296 106.059 26.1323 113.106 26.1323C120.153 26.1323 125.855 20.4296 125.855 13.3828C125.855 6.33594 120.153 0.633301 113.106 0.633301C106.059 0.633301 100.356 6.33594 100.356 13.3828Z" fill="#8E705E"/>
<path d="M109.318 19.1669C115.753 21.3665 122.067 18.4744 125.896 13.2606C125.896 13.3013 125.896 13.3421 125.896 13.3828C125.896 20.4296 120.193 26.1323 113.146 26.1323C106.1 26.1323 100.397 20.4296 100.397 13.3828C100.397 13.1384 100.438 12.894 100.438 12.6496C102.759 15.5824 105.733 17.9449 109.318 19.1669Z" fill="#816554"/>
<path d="M106.792 5.39906C106.792 7.10985 108.503 8.4948 110.58 8.4948C112.698 8.4948 114.368 7.10985 114.368 5.39906C114.368 3.68826 112.658 2.30334 110.58 2.30334C108.503 2.34408 106.792 3.729 106.792 5.39906Z" fill="#AE9282"/>
<path d="M59.8266 39.4927C62.6372 35.0936 66.9142 30.8981 70.7431 30.3685C71.2319 30.2871 72.2095 30.1648 72.6576 30.3278C73.513 30.6129 73.1056 30.6129 73.6759 31.3461C75.9162 34.2382 78.9305 34.0345 82.3928 33.2606C84.5517 32.7718 87.0771 31.8757 88.9916 33.2198C90.3765 34.1974 91.7614 37.008 93.2686 37.3746" fill="#FDD396"/>
<path d="M28.4214 95.6231C28.4214 97.619 28.2177 99.6557 28.4214 101.652C28.5028 102.344 29.5619 102.344 29.4804 101.652C29.2768 99.6557 29.4804 97.6598 29.4804 95.6231C29.5212 94.9306 28.4214 94.9306 28.4214 95.6231Z" fill="#F5A886"/>
<path d="M31.2319 92.7311C31.4763 94.1568 31.7207 95.5824 32.4539 96.8451C32.8205 97.4561 33.7574 96.8859 33.3908 96.3156C32.6983 95.1343 32.4947 93.7902 32.2503 92.4867C32.1688 91.7942 31.1505 92.0794 31.2319 92.7311Z" fill="#F5A886"/>
<path d="M28.3399 86.9062C28.2177 88.1282 28.014 89.3502 28.014 90.5722C28.014 91.2646 29.0731 91.2646 29.0731 90.5722C29.0731 89.3502 29.2767 88.1282 29.3989 86.9062C29.4804 86.2137 28.3806 86.2137 28.3399 86.9062Z" fill="#F5A886"/>
<path d="M29.6433 77.2932C29.5211 77.9042 29.4397 78.5152 29.3175 79.1262C29.1953 79.8186 30.2136 80.1038 30.3358 79.4113C30.458 78.8003 30.5395 78.1893 30.6617 77.5783C30.7839 76.9266 29.7655 76.6414 29.6433 77.2932Z" fill="#F5A886"/>
<path d="M31.4763 85.7657C31.5578 86.3767 31.5985 86.9877 31.68 87.5987C31.8022 88.2911 32.8613 88.006 32.6983 87.3135C32.5761 86.7025 32.5761 86.0915 32.4947 85.4805C32.4132 84.7881 31.3541 85.0732 31.4763 85.7657Z" fill="#F5A886"/>
<path d="M32.8612 72.6088C32.7798 73.7086 32.739 74.8492 32.6576 75.949C32.5761 76.6414 33.6759 76.6414 33.7166 75.949C33.8388 74.8492 33.8388 73.7086 33.9203 72.6088C33.961 71.9164 32.902 71.9164 32.8612 72.6088Z" fill="#F5A886"/>
<path d="M33.3093 64.951C32.902 66.0101 32.5354 67.1099 32.128 68.1689C31.8836 68.8207 32.902 69.1058 33.1464 68.4541C33.5537 67.395 33.9203 66.2952 34.3276 65.2362C34.572 64.5844 33.5537 64.2993 33.3093 64.951Z" fill="#F5A886"/>
<path d="M38.4009 56.4378C38.1565 56.8858 37.9936 57.3746 37.7492 57.8227C37.4641 58.4337 38.3602 59.0039 38.6861 58.3522C38.9305 57.9041 39.0934 57.4154 39.3378 56.9673C39.6229 56.3563 38.6861 55.8268 38.4009 56.4378Z" fill="#F5A886"/>
<path d="M46.1402 46.7433C45.2441 47.9653 44.2665 49.1058 43.2075 50.1649C42.7187 50.6537 43.4926 51.4276 43.9814 50.9388C45.1219 49.7983 46.0995 48.5763 47.0771 47.2728C47.4844 46.7433 46.5476 46.2137 46.1402 46.7433Z" fill="#F5A886"/>
<path d="M34.8979 82.5885C35.0201 83.9327 35.2238 85.2769 35.5496 86.6211C35.7126 87.3136 36.7309 87.0284 36.568 86.3359C36.2828 85.114 36.0384 83.8512 35.957 82.6292C35.9162 81.9368 34.8164 81.9368 34.8979 82.5885Z" fill="#F5A886"/>
<path d="M36.7309 93.3013C36.8531 93.9531 37.0568 94.6048 37.2604 95.2158C37.4641 95.8675 38.5232 95.5824 38.2788 94.9307C38.0751 94.2789 37.8714 93.6679 37.7492 93.0162C37.627 92.3237 36.6087 92.6089 36.7309 93.3013Z" fill="#F5A886"/>
<path d="M66.0996 30.2056C66.8328 29.1465 67.5252 28.006 68.5028 27.1099C69.0323 26.6211 68.2584 25.8879 67.7289 26.3359C66.7106 27.2728 65.9774 28.5355 65.1627 29.676C64.7554 30.2463 65.6922 30.7758 66.0996 30.2056Z" fill="#F5A886"/>
<path d="M70.3765 23.6476C70.7024 23.1995 71.1097 22.7922 71.4356 22.3441C71.5985 22.0997 71.4763 21.7331 71.2319 21.6109C70.9468 21.448 70.6616 21.5702 70.4987 21.8146C70.1728 22.2626 69.7655 22.6699 69.4396 23.118C69.2767 23.3624 69.3989 23.729 69.6433 23.8512C69.9284 24.0142 70.2136 23.892 70.3765 23.6476Z" fill="#F5A886"/>
<path d="M72.6576 25.4806C72.8613 25.1547 73.0649 24.7881 73.3093 24.5029C73.7981 24.0141 73.0242 23.2402 72.5354 23.729C72.2095 24.0956 71.9651 24.5029 71.68 24.9103C71.3541 25.5213 72.291 26.0508 72.6576 25.4806Z" fill="#F5A886"/>
<path d="M72.0059 28.9429C72.4132 28.5355 72.902 28.1689 73.3908 27.8431C73.9611 27.4765 73.4315 26.5396 72.8613 26.9062C72.291 27.2728 71.7207 27.6801 71.2319 28.1689C70.7839 28.6577 71.5171 29.3909 72.0059 28.9429Z" fill="#F5A886"/>
<path d="M76.2014 29.3502C77.6678 27.9245 79.46 26.8247 81.1301 25.6842C81.7004 25.2769 81.1708 24.3807 80.6006 24.7473C78.8083 25.9693 76.9753 27.0691 75.4275 28.5763C74.9387 29.0651 75.7126 29.839 76.2014 29.3502Z" fill="#F5A886"/>
<path d="M80.5191 31.061C81.1301 30.5314 81.7411 30.0426 82.4336 29.6353C83.0446 29.2687 82.4743 28.3726 81.904 28.6985C81.1301 29.1465 80.4376 29.7168 79.7452 30.2871C79.2156 30.7759 79.9896 31.509 80.5191 31.061Z" fill="#F5A886"/>
<path d="M85.8959 31.1425C86.5069 30.8166 87.1586 30.5722 87.8103 30.3278C88.462 30.1241 88.1769 29.0651 87.5252 29.3095C86.792 29.5539 86.0588 29.8797 85.3663 30.2056C84.7146 30.5315 85.2849 31.4683 85.8959 31.1425Z" fill="#F5A886"/>
<path d="M20.7635 48.9021C21.456 49.7983 22.1484 50.7351 23.0853 51.3461C23.6556 51.7127 24.2258 50.7758 23.6148 50.4092C22.8002 49.8797 22.2299 49.1058 21.6596 48.3319C21.293 47.8431 20.3562 48.3726 20.7635 48.9021Z" fill="#F5A886"/>
<path d="M26.1403 54.3604C27.0771 55.0528 28.0547 55.5824 29.1545 55.8268C29.847 55.949 30.1321 54.9307 29.4397 54.8085C28.3806 54.6048 27.5252 54.116 26.6698 53.4642C26.0995 53.0162 25.57 53.953 26.1403 54.3604Z" fill="#F5A886"/>
<path d="M31.3542 54.6455C32.0466 54.6455 32.0466 53.5865 31.3542 53.5865C30.6617 53.5865 30.6617 54.6455 31.3542 54.6455Z" fill="#F5A886"/>
<path d="M30.5802 58.6374C31.2727 58.6374 31.2727 57.5783 30.5802 57.5783C29.8877 57.5783 29.8877 58.6374 30.5802 58.6374Z" fill="#F5A886"/>
<path d="M34.0018 53.8716C34.7757 54.0752 35.5497 54.2789 36.3643 54.4011C37.0568 54.5233 37.3419 53.4642 36.6494 53.3828C35.8348 53.2606 35.0608 53.0569 34.2869 52.8532C33.5945 52.6903 33.3093 53.7086 34.0018 53.8716Z" fill="#F5A886"/>
<path d="M33.3908 57.008C34.2055 57.008 35.0201 56.8858 35.7941 56.56C36.4458 56.3156 36.1607 55.2565 35.5089 55.5417C34.8165 55.8268 34.124 55.949 33.3908 55.949C32.6983 55.949 32.6983 57.0488 33.3908 57.008Z" fill="#F5A886"/>
<path d="M39.7452 49.3909C40.7635 49.1465 41.7411 48.8207 42.7594 48.5355C43.4112 48.3319 43.126 47.3135 42.4743 47.5172C41.456 47.8023 40.4784 48.1282 39.4601 48.3726C38.8083 48.4948 39.0935 49.5131 39.7452 49.3909Z" fill="#F5A886"/>
<path d="M17.3012 43.3217C18.1566 44.2993 19.0934 45.1954 20.1118 46.0101C20.6413 46.4174 21.4152 45.6842 20.8857 45.2362C19.8674 44.4215 18.9712 43.5254 18.0751 42.5478C17.5863 42.059 16.8531 42.8329 17.3012 43.3217Z" fill="#F5A886"/>
<path d="M139.338 46.5396C138.645 47.4764 137.79 48.2911 136.731 48.8207C136.12 49.1465 136.649 50.0834 137.26 49.7575C138.482 49.1465 139.46 48.2097 140.234 47.1099C140.641 46.5396 139.704 45.9693 139.338 46.5396Z" fill="#F5A886"/>
<path d="M132.739 52.6903C132.087 53.2198 131.354 53.6679 130.702 54.1974C130.173 54.6455 130.947 55.3787 131.476 54.9713C132.128 54.4418 132.861 53.9937 133.513 53.4642C134.042 52.9754 133.269 52.2422 132.739 52.6903Z" fill="#F5A886"/>
<path d="M131.15 49.8797C130.58 50.1648 129.969 50.3685 129.358 50.5722C128.706 50.7759 128.992 51.8349 129.643 51.5905C130.336 51.3461 131.028 51.1017 131.721 50.7759C132.291 50.5315 131.761 49.5946 131.15 49.8797Z" fill="#F5A886"/>
<path d="M128.055 56.8451C127.403 56.9673 126.711 56.9266 126.059 56.8451C125.774 56.8044 125.529 57.1303 125.529 57.3747C125.529 57.7005 125.774 57.8634 126.059 57.9042C126.833 58.0264 127.566 57.9856 128.34 57.9042C128.992 57.782 128.706 56.7229 128.055 56.8451Z" fill="#F5A886"/>
<path d="M125.896 53.505C125.448 53.5864 125 53.5864 124.552 53.5864C123.859 53.5864 123.859 54.6455 124.552 54.6455C125.122 54.6455 125.651 54.6048 126.181 54.5233C126.873 54.4011 126.548 53.3828 125.896 53.505Z" fill="#F5A886"/>
<path d="M118.768 47.6801C118.279 47.5579 117.831 47.395 117.383 47.232C116.731 47.0691 116.446 48.0874 117.098 48.2504C117.586 48.3726 118.034 48.5355 118.482 48.6984C119.134 48.9021 119.419 47.8838 118.768 47.6801Z" fill="#F5A886"/>
</svg>
