<svg width="50" height="50" viewBox="0 0 50 50" fill="none" xmlns="http://www.w3.org/2000/svg">
<path d="M47.25 0H2.75C2.02065 0 1.32118 0.289732 0.805457 0.805457C0.289732 1.32118 0 2.02065 0 2.75V47.25C0 47.6111 0.0711311 47.9687 0.209332 48.3024C0.347532 48.636 0.550096 48.9392 0.805457 49.1945C1.06082 49.4499 1.36398 49.6525 1.69762 49.7907C2.03127 49.9289 2.38886 50 2.75 50H26.7V30.625H20.2V23.125H26.7V17.5C26.5654 16.1794 26.7213 14.8453 27.1568 13.5913C27.5923 12.3374 28.2969 11.1939 29.2212 10.241C30.1454 9.28819 31.2669 8.5491 32.5071 8.07559C33.7472 7.60209 35.0759 7.40563 36.4 7.5C38.3458 7.48803 40.2907 7.58819 42.225 7.8V14.55H38.25C35.1 14.55 34.5 16.05 34.5 18.225V23.05H42L41.025 30.55H34.5V50H47.25C47.6111 50 47.9687 49.9289 48.3024 49.7907C48.636 49.6525 48.9392 49.4499 49.1945 49.1945C49.4499 48.9392 49.6525 48.636 49.7907 48.3024C49.9289 47.9687 50 47.6111 50 47.25V2.75C50 2.38886 49.9289 2.03127 49.7907 1.69762C49.6525 1.36398 49.4499 1.06082 49.1945 0.805457C48.9392 0.550096 48.636 0.347532 48.3024 0.209332C47.9687 0.0711311 47.6111 0 47.25 0Z" fill="#020AB9"/>
</svg>
