<svg width="450" height="858" viewBox="0 0 450 858" fill="none" xmlns="http://www.w3.org/2000/svg">
<g clip-path="url(#clip0_67_1608)">
<path d="M385.57 89.5449C386.478 96.2389 384.461 103.127 380.125 108.463C376.294 113.217 369.034 118.164 362.38 118.164C354.918 118.164 348.868 117.582 342.718 112.925C337.172 108.754 333.542 102.545 332.635 95.8508C331.728 89.1568 333.744 82.2688 338.08 76.9329C341.911 72.1792 349.171 67.2314 355.826 67.2314C363.287 67.2314 369.337 67.8135 375.487 72.4702C381.033 76.5449 384.663 82.7538 385.57 89.5449Z" fill="#55C4C0"/>
<path d="M192.18 756.328C193.088 763.022 191.071 769.91 186.735 775.246C182.904 780 175.644 784.948 168.989 784.948C161.528 784.948 155.478 784.366 149.328 779.709C143.782 775.537 140.152 769.328 139.245 762.634C138.337 755.94 140.354 749.052 144.69 743.716C148.521 738.963 155.781 734.015 162.436 734.015C169.897 734.015 175.947 734.597 182.097 739.254C187.643 743.425 191.273 749.537 192.18 756.328Z" fill="#EB5A54"/>
<path d="M220.11 74.0224C215.27 77.4179 209.926 79.5522 203.977 80.2313C201.053 80.2313 198.129 80.2313 195.306 80.2313C189.256 79.4552 183.711 77.2239 178.871 73.6343C171.813 68.2985 167.074 60.4403 165.965 51.806C164.855 43.1717 167.376 34.4403 172.922 27.6493C175.14 25.612 177.257 23.5746 179.476 21.5373C184.315 18.1418 189.659 16.0075 195.608 15.3284C198.532 15.3284 201.456 15.3284 204.28 15.3284C210.329 16.1045 215.875 18.3358 220.715 21.9254C227.773 27.2612 232.512 35.1194 233.621 43.7537C234.73 52.3881 232.209 61.1194 226.664 67.9105C224.445 69.9478 222.328 71.9851 220.11 74.0224Z" fill="#EB5A54"/>
<path d="M70.3787 851.694C65.5389 855.09 60.1949 857.224 54.246 857.903C51.322 857.903 48.3979 857.903 45.5747 857.903C39.525 857.127 33.9794 854.895 29.1396 851.306C22.0815 845.97 17.3426 838.112 16.2334 829.478C15.1243 820.843 17.6451 812.112 23.1907 805.321C25.4089 803.284 27.5263 801.246 29.7446 799.209C34.5844 795.813 39.9283 793.679 45.8772 793C48.8013 793 51.7253 793 54.5485 793C60.5982 793.776 66.1438 796.007 70.9836 799.597C78.0417 804.933 82.7806 812.791 83.8897 821.425C84.9989 830.06 82.4781 838.791 76.9325 845.582C74.7143 847.619 72.5969 849.657 70.3787 851.694Z" fill="#7BBA44"/>
<path d="M69.7413 149.177C61.07 149.177 53.1045 144.908 51.8945 135.789C50.8863 128.222 57.0368 118.617 65.809 118.617C74.4803 118.617 82.4457 122.886 83.6557 132.005C84.5632 139.573 78.4126 149.177 69.7413 149.177Z" fill="#55C4C0"/>
<path d="M17.9475 734.015C9.27622 734.015 1.31072 729.746 0.100767 720.627C-0.907524 713.06 5.24307 703.455 14.0152 703.455C22.6865 703.455 30.652 707.724 31.8619 716.843C32.7694 724.41 26.7196 734.015 17.9475 734.015Z" fill="#55C4C0"/>
<path d="M251.955 179.56C243.284 179.56 235.318 175.291 234.108 166.172C233.1 158.604 239.25 149 248.023 149C256.694 149 264.659 153.269 265.869 162.388C266.878 169.858 260.727 179.56 251.955 179.56Z" fill="#7BBA44"/>
</g>
<defs>
<clipPath id="clip0_67_1608">
<rect width="450" height="858" fill="white" transform="matrix(-1 0 0 1 450 0)"/>
</clipPath>
</defs>
</svg>
