<svg width="159" height="138" viewBox="0 0 159 138" fill="none" xmlns="http://www.w3.org/2000/svg">
<path d="M22.406 0.121552C9.61576 0.121552 -1.01561 12.9118 3.22064 25.4983C6.07197 34.0116 13.241 40.2845 22.406 40.2845C33.4854 40.2845 42.4875 31.2825 42.4875 20.203C42.4875 9.12359 33.5261 0.121552 22.406 0.121552Z" fill="#FAC180"/>
<path d="M19.4325 31.7712C24.1575 26.6389 29.6158 22.1989 35.1555 17.8812C35.2369 17.8405 35.3184 17.7998 35.3999 17.7998C34.2594 12.26 29.3306 8.146 23.4651 8.146C16.7441 8.146 11.2858 13.6042 11.2858 20.3252C11.3266 25.5798 14.7074 30.1012 19.4325 31.7712Z" fill="#EBC0B2"/>
<path d="M16.6626 16.7C17.2736 12.3415 19.8398 9.57165 23.3021 8.10526C16.6626 8.18672 11.2858 13.6042 11.2858 20.2845C11.2858 25.5798 14.6667 30.1012 19.3917 31.7712C19.6361 31.4861 19.9213 31.2417 20.1657 30.9566C17.6402 26.6796 15.9701 21.5879 16.6626 16.7Z" fill="#E8A8A6"/>
<path d="M136.296 0.121552C149.086 0.121552 159.718 12.9118 155.481 25.4983C152.63 34.0116 145.461 40.2845 136.296 40.2845C125.217 40.2845 116.214 31.2825 116.214 20.203C116.214 9.12359 125.176 0.121552 136.296 0.121552Z" fill="#FAC180"/>
<path d="M139.27 31.7712C134.504 26.6389 129.086 22.1989 123.506 17.8812C123.424 17.8405 123.343 17.7998 123.261 17.7998C124.402 12.26 129.331 8.146 135.196 8.146C141.917 8.146 147.375 13.6042 147.375 20.3252C147.375 25.5798 143.995 30.1012 139.27 31.7712Z" fill="#EBC0B2"/>
<path d="M142.039 16.7C141.428 12.3415 138.821 9.57165 135.359 8.10526C141.999 8.18672 147.375 13.6042 147.375 20.2845C147.375 25.5798 143.995 30.1012 139.269 31.7712C139.025 31.4861 138.74 31.2417 138.496 30.9566C141.062 26.6796 142.732 21.5879 142.039 16.7Z" fill="#E8A8A6"/>
<path d="M155.889 77.1887C154.422 76.3333 152.671 75.1521 151.938 73.5635C151.082 71.7305 152.304 70.2234 153.526 68.9199C154.544 67.8608 155.318 66.7203 155.889 65.3354C156.622 63.5838 156.418 60.7325 154.015 60.8547C151.164 61.0584 149.534 60.1622 147.946 57.8405C146.683 55.9667 146.072 53.7671 145.135 51.7305C143.424 48.0645 142.243 44.1134 140.166 40.6103C134.87 31.5268 127.864 22.9321 119.025 17.0665C108.475 10.1419 93.9334 5.53903 80.2064 5.53903C67.742 5.53903 53.4447 8.30889 43.3021 14.1745C34.2593 19.3883 26.6829 26.924 21.3062 35.8445C17.6402 41.873 14.911 48.3089 13.1188 54.8669C12.4263 56.537 11.8153 58.2885 10.797 59.7956C9.2084 62.1174 7.57907 63.0136 4.72775 62.8099C2.32449 62.647 2.12083 65.4983 2.85402 67.2906C3.42429 68.6755 4.19822 69.816 5.21655 70.8751C6.43854 72.1378 7.66054 73.6449 6.80514 75.5187C6.07195 77.1073 4.27969 78.2478 2.85402 79.1439C0.165633 80.7733 -0.3639 83.9504 2.40596 85.7834C3.83162 86.7203 5.66461 87.0054 7.33467 87.2906C8.02714 87.4128 9.04547 87.2091 9.4528 87.983C10.6341 90.1419 5.74608 90.5899 4.68702 90.8343C1.2247 91.6897 4.64628 95.4372 6.07195 96.6185C7.53834 97.8405 9.16767 98.8995 10.9192 99.6735C12.3449 100.284 14.2593 100.366 15.4813 101.303C17.355 102.728 18.4141 107.25 19.6361 109.531C22.7726 115.234 26.9273 120.284 32.019 124.317C45.3387 134.867 63.1392 137.678 79.6768 137.678C87.1717 137.678 94.7074 136.985 101.999 135.234C107.986 133.767 113.852 131.568 119.188 128.431C122.324 126.598 124.646 124.561 126.805 122.28C131.815 118.248 135.97 113.278 139.066 107.616C139.351 107.087 139.636 106.435 139.921 105.743C141.062 103.747 142.121 101.669 143.017 99.592C143.098 99.5105 143.139 99.4698 143.221 99.3883C144.483 98.4515 146.357 98.37 147.783 97.759C149.534 97.0258 151.164 95.926 152.63 94.704C154.056 93.482 157.477 89.7346 154.015 88.9199C152.997 88.6755 148.109 88.2274 149.249 86.0686C149.656 85.3354 150.675 85.4983 151.367 85.3761C153.037 85.091 154.83 84.8466 156.296 83.869C159.107 82.036 158.577 78.8181 155.889 77.1887Z" fill="#FAC180"/>
<path d="M154.056 88.8792C153.526 88.757 151.978 88.5533 150.756 88.146L79.2288 78.3293L9.45282 88.146C10.2267 90.1419 5.6239 90.5492 4.60557 90.7936C1.14324 91.649 4.56483 95.3965 5.9905 96.5778C7.45689 97.7997 9.08622 98.8588 10.8377 99.6327C12.2634 100.244 14.1779 100.325 15.3999 101.262C17.2736 102.688 18.3327 107.209 19.5546 109.49C22.6911 115.193 26.8459 120.244 31.9375 124.276C45.2573 134.826 63.0577 137.637 79.5954 137.637C87.0903 137.637 94.6259 136.944 101.917 135.193C107.905 133.726 113.771 131.527 119.107 128.39C122.243 126.557 124.565 124.521 126.724 122.24C131.734 118.207 135.889 113.238 138.984 107.576C139.27 107.046 139.555 106.394 139.84 105.702C140.98 103.706 142.039 101.629 142.936 99.5513C143.017 99.4698 143.058 99.4291 143.139 99.3476C144.402 98.4107 146.276 98.3293 147.701 97.7183C149.453 96.9851 151.082 95.8853 152.549 94.6633C154.137 93.482 157.518 89.7346 154.056 88.8792Z" fill="#FDEBC9"/>
<path d="M10.2675 99.0217C10.4712 99.2254 10.6748 99.4291 10.8785 99.6327C12.3041 100.244 14.2186 100.325 15.4406 101.262C16.296 101.914 16.9477 103.177 17.5587 104.561C19.2695 108.635 35.8479 114.908 39.6361 114.989C54.4223 115.315 73.9742 96.4963 79.5547 81.5879C80.8581 78.1256 82.0394 80.8955 79.5547 78.2478C74.9111 73.2784 68.5567 70.6307 63.7502 65.9464C58.3327 60.6103 53.9742 63.6246 48.8011 67.6572C44.7685 70.7529 40.3286 73.5635 35.074 73.7672C24.6463 74.1745 18.0883 65.1317 8.88256 61.8323C7.78276 62.647 6.43857 62.9321 4.68704 62.8507C2.28378 62.6877 2.08011 65.5391 2.81331 67.3313C3.38358 68.7162 4.15751 69.8568 5.17584 70.9158C6.39783 72.1786 7.61983 73.6857 6.76443 75.5594C6.03124 77.148 4.23897 78.2885 2.81331 79.1847C0.124921 80.814 -0.40461 83.9912 2.36525 85.8242C3.79091 86.7611 5.6239 87.0462 7.29396 87.3313C7.98643 87.4535 9.00476 87.2499 9.41209 88.0238C10.5934 90.1826 5.70537 90.6307 4.64631 90.8751C1.18398 91.7305 4.60557 95.478 6.03124 96.6592C7.00883 97.4739 8.10863 98.2478 9.24916 98.8588C9.57502 98.6959 9.94162 98.6959 10.2675 99.0217Z" fill="#FDEBC9"/>
<path d="M148.516 58.6552C136.052 65.9464 118.821 67.0462 104.606 66.3537C101.428 66.1908 97.6402 63.8283 94.5038 64.5207C91.8968 65.091 90.6341 67.5757 88.8011 69.3273C86.2349 71.812 73.4854 68.3089 74.8296 72.871C80.4101 91.4046 102.406 130.59 140.695 104.154C141.51 102.647 142.284 101.099 142.976 99.5106C143.058 99.4291 143.098 99.3884 143.18 99.3069C144.443 98.37 146.316 98.2886 147.742 97.6776C149.494 96.9444 151.123 95.8446 152.589 94.6226C154.015 93.4006 157.437 89.6531 153.974 88.8385C152.956 88.5941 148.068 88.146 149.208 85.9871C149.616 85.2539 150.634 85.4169 151.327 85.2947C152.997 85.0095 154.789 84.7651 156.255 83.7875C158.984 81.9545 158.455 78.7773 155.807 77.148C154.341 76.2926 152.589 75.1114 151.856 73.5228C151.001 71.6898 152.223 70.1826 153.445 68.8792C154.463 67.8201 155.237 66.6796 155.807 65.2947C156.54 63.5431 156.337 60.6918 153.933 60.814C151.489 61.0584 149.942 60.4067 148.516 58.6552Z" fill="#FDEBC9"/>
<path d="M88.4752 14.3374C89.9823 19.144 96.2553 21.0584 100.817 20.0808C105.461 19.1032 109.249 16.3334 111.204 12.7488C104.931 9.77532 97.9253 7.535 90.7563 6.39447C88.964 8.757 87.6198 11.5676 88.4752 14.3374Z" fill="#423D33"/>
<path d="M59.1473 17.2295C55.1962 17.2702 50.5119 19.7957 49.4121 22.7285C47.1718 28.7977 56.7441 35.0706 61.5913 31.4046C64.8092 28.9606 65.9905 23.5839 64.3204 19.9586C63.3836 17.9627 61.3876 17.1888 59.1473 17.2295Z" fill="#423D33"/>
<path d="M82.0801 26.6389C79.4324 28.2275 76.4182 32.1786 76.6218 34.5411C76.907 38.1256 82.7726 40.4474 85.7868 40.203C91.3265 39.7142 92.63 34.5818 89.9416 30.2641C88.8418 28.5126 86.1941 25.702 83.8316 25.9871C83.3021 26.0686 82.7318 26.2723 82.0801 26.6389Z" fill="#423D33"/>
<path d="M120.369 26.313C120.94 29.2458 123.384 31.4046 125.991 32.6266C129.29 34.1745 132.589 34.3374 135.4 33.4005C131.897 28.5533 127.864 24.0319 123.221 20.2845C121.347 21.8323 119.881 23.869 120.369 26.313Z" fill="#423D33"/>
<path d="M22.0393 53.645C24.1167 52.871 25.6239 50.9973 26.1534 48.8792C27.4976 43.5839 23.8316 40.3252 19.1473 39.592C17.0699 43.5431 15.3591 47.6164 14.0149 51.7712C16.3367 53.3598 19.2695 54.6633 22.0393 53.645Z" fill="#423D33"/>
<path d="M30.1046 34.2153C32.019 34.0931 33.3225 32.3008 34.0557 30.7122C35.4406 27.6165 35.7665 23.6654 34.3408 20.5289C30.96 23.421 27.8642 26.6389 25.1758 30.1827C26.3164 32.1786 27.9457 34.3782 30.1046 34.2153Z" fill="#423D33"/>
<path d="M127.62 43.869C125.217 45.4169 123.098 47.535 123.913 49.3273C125.461 52.6266 131.652 52.7081 134.219 51.1195C137.885 48.8792 137.559 41.0991 132.426 41.7509C131.408 41.8731 129.453 42.7285 127.62 43.869Z" fill="#423D33"/>
<path d="M60.0842 7.86088C60.2878 10.4271 61.2654 12.8303 63.7502 14.0931C66.4385 15.478 69.6972 15.5187 72.5485 14.6226C77.4772 13.1155 80.6544 9.57167 80.2471 5.49835H80.2064C73.6891 5.53909 66.7237 6.31301 60.0842 7.86088Z" fill="#423D33"/>
<path d="M157.314 78.4515C157.192 79.4291 156.622 80.3659 155.522 81.0991C154.096 82.036 152.263 82.3211 150.593 82.6063C149.901 82.7285 148.883 82.5248 148.475 83.2987C147.864 84.3985 148.883 85.0503 150.105 85.4576C150.512 85.3761 151.001 85.3761 151.408 85.3354C153.078 85.0503 154.87 84.8059 156.337 83.8283C158.496 82.4026 158.618 80.1623 157.314 78.4515Z" fill="#F9BE90"/>
<path d="M155.033 62.647C154.463 64.0319 153.689 65.1725 152.671 66.2315C151.449 67.4943 150.227 69.0014 151.082 70.8751C151.245 71.201 151.449 71.5268 151.693 71.812C151.897 70.7529 152.671 69.8161 153.485 68.9607C154.504 67.9016 155.278 66.7611 155.848 65.3761C156.418 64.0319 156.418 62.0767 155.359 61.2621C155.318 61.7509 155.196 62.2397 155.033 62.647Z" fill="#F9BE90"/>
<path d="M5.21661 70.8751C5.58321 71.2417 5.90908 71.6491 6.19421 72.0564C6.47934 70.5493 5.42028 69.2865 4.40195 68.146C3.62802 67.3313 2.97629 66.4759 2.48749 65.4984C2.48749 66.1094 2.65042 66.7611 2.85409 67.2906C3.42435 68.6348 4.19828 69.7753 5.21661 70.8751Z" fill="#F9BE90"/>
<path d="M7.29401 87.2499C8.3938 86.8425 9.127 86.1908 8.59747 85.2132C8.19014 84.48 7.17181 84.6429 6.47934 84.5207C4.80928 84.2356 3.01702 83.9912 1.55063 83.0136C1.18403 82.7692 0.85816 82.4841 0.573028 82.1582C0.369362 83.4617 0.898894 84.7651 2.36529 85.702C3.79095 86.6796 5.62394 86.9647 7.29401 87.2499Z" fill="#F9BE90"/>
<path d="M154.382 88.9606C153.771 90.1419 152.589 91.3639 151.897 91.9342C150.43 93.1562 148.801 94.2152 147.05 94.9892C145.624 95.6002 143.709 95.6816 142.487 96.6185C142.406 96.6592 142.365 96.7407 142.284 96.8221C141.388 98.8995 140.329 100.977 139.188 102.973C138.903 103.665 138.618 104.317 138.333 104.847C135.237 110.468 131.082 115.478 126.072 119.511C123.913 121.751 121.591 123.828 118.455 125.661C113.119 128.798 107.253 130.997 101.265 132.464C93.9742 134.215 86.4386 134.908 78.9436 134.908C62.406 134.908 44.6056 132.097 31.2858 121.547C26.1941 117.515 21.9986 112.464 18.9029 106.761C17.6402 104.48 16.6218 99.9586 14.7481 98.5329C13.4854 97.5961 11.6117 97.5146 10.186 96.9036C8.43447 96.1704 6.80515 95.0706 5.33875 93.8486C4.80922 93.4006 3.99456 92.6266 3.38356 91.7305C2.77256 93.1969 5.05362 95.6409 6.15342 96.537C7.61981 97.759 9.24914 98.8181 11.0007 99.592C12.4263 100.203 14.3408 100.284 15.5628 101.221C17.4365 102.647 18.4956 107.168 19.7176 109.449C22.854 115.152 27.0088 120.203 32.1005 124.236C45.4202 134.785 63.2206 137.596 79.7583 137.596C87.2532 137.596 94.7889 136.904 102.08 135.152C108.068 133.686 113.933 131.486 119.27 128.35C122.406 126.517 124.728 124.48 126.887 122.199C131.897 118.166 136.052 113.197 139.147 107.535C139.432 107.005 139.718 106.354 140.003 105.661C141.143 103.665 142.202 101.588 143.098 99.5105C143.18 99.4291 143.221 99.3883 143.302 99.3069C144.565 98.37 146.439 98.2885 147.864 97.6775C149.616 96.9443 151.245 95.8446 152.711 94.6226C154.056 93.5228 157.274 89.979 154.382 88.9606Z" fill="#F6A978"/>
<path d="M10.797 84.8873C10.7562 84.8873 10.6748 84.8873 10.634 84.8466C10.2674 84.7244 10.0638 84.3171 10.186 83.9505C10.9192 80.9769 12.4263 78.3293 13.7705 76.1297C13.9742 75.8038 14.3815 75.7224 14.6666 75.9668C14.9518 76.2112 15.0332 76.6592 14.8296 76.9851C13.5261 79.0625 12.1004 81.5879 11.408 84.3578C11.3672 84.6837 11.1228 84.8873 10.797 84.8873Z" fill="#F6A978"/>
<path d="M23.9538 110.753C23.9538 110.753 23.9131 110.794 23.8724 110.794C23.5465 110.957 23.1392 110.834 22.9355 110.509C21.8357 108.635 20.6544 106.72 19.3917 104.643C19.188 104.317 19.2695 103.869 19.5546 103.706C19.8805 103.502 20.2878 103.665 20.4915 103.991C21.795 106.069 22.9355 108.024 24.076 109.898C24.2797 110.142 24.2389 110.549 23.9538 110.753Z" fill="#F6A978"/>
<path d="M20.2879 84.7244C20.2064 84.7244 20.1657 84.7244 20.0842 84.6837C19.7584 84.5615 19.5547 84.1541 19.6769 83.7468C20.0435 82.5248 20.2472 81.0584 20.4508 79.755L20.5323 79.1847C20.573 78.7774 20.9396 78.533 21.3062 78.5737C21.6728 78.6552 21.9172 79.0218 21.8358 79.4291L21.7543 79.9586C21.5506 81.3028 21.347 82.8099 20.9396 84.1541C20.8174 84.5207 20.5323 84.7244 20.2879 84.7244Z" fill="#F6A978"/>
<path d="M4.89068 84.1541C4.80921 84.1134 4.76848 84.1134 4.68701 84.0319C4.40188 83.7875 4.36115 83.3395 4.60555 83.0136C5.33874 81.9545 6.03121 80.6511 6.64221 79.5105L6.8866 79.0217C7.09027 78.6551 7.4976 78.5329 7.78274 78.6959C8.1086 78.8588 8.19007 79.3069 8.02713 79.6735L7.78274 80.1623C7.17174 81.3843 6.43854 82.7284 5.62388 83.869C5.42021 84.1541 5.13508 84.2356 4.89068 84.1541Z" fill="#F6A978"/>
<path d="M18.4548 52.423C18.4141 52.423 18.3326 52.423 18.2919 52.3822C17.9253 52.3008 17.7216 51.8934 17.8031 51.4861L18.4548 48.5533C18.5363 48.146 18.9029 47.9423 19.2695 48.0238C19.6361 48.1052 19.8398 48.5126 19.7583 48.9199L19.1066 51.8527C19.0251 52.1786 18.74 52.423 18.4548 52.423Z" fill="#F6A978"/>
<path d="M14.7481 58.2071C14.7073 58.2071 14.6259 58.2071 14.5851 58.1663C14.2185 58.0849 14.0149 57.6775 14.0963 57.2702L14.7481 54.3374C14.8295 53.9301 15.1961 53.7264 15.5627 53.8079C15.9293 53.8894 16.133 54.2967 16.0515 54.704L15.3998 57.6368C15.3183 57.9627 15.0739 58.2071 14.7481 58.2071Z" fill="#F6A978"/>
<path d="M16.9884 63.4617C16.9477 63.4617 16.9069 63.4617 16.8255 63.4617C16.4589 63.3802 16.2552 62.9729 16.3367 62.5655C16.7847 60.3252 17.4365 58.0849 18.0882 55.8853C18.2104 55.5187 18.577 55.2743 18.9029 55.4372C19.2287 55.5594 19.4324 55.9667 19.3102 56.3741C18.6585 58.5329 18.0067 60.7325 17.5587 62.8914C17.5587 63.2173 17.2735 63.4617 16.9884 63.4617Z" fill="#F6A978"/>
<path d="M27.6198 108.146C27.3347 108.268 26.9681 108.146 26.7644 107.861C25.0536 105.213 23.8723 102.036 22.9355 99.4698C22.8133 99.1032 22.9762 98.6959 23.3021 98.5737C23.6279 98.4515 24.0353 98.6551 24.1575 99.0625C25.0943 101.547 26.2349 104.643 27.8235 107.128C28.0271 107.454 27.9864 107.902 27.7013 108.105C27.7013 108.146 27.6605 108.146 27.6198 108.146Z" fill="#F6A978"/>
<path d="M29.2491 118.248C29.0047 118.248 28.7603 118.085 28.6788 117.84C28.2308 116.863 27.8234 116.17 27.2124 115.274C27.0088 114.948 27.0495 114.5 27.3346 114.256C27.6198 114.012 28.0271 114.093 28.2715 114.419C28.8825 115.356 29.3713 116.17 29.8601 117.229C30.023 117.596 29.9008 118.044 29.575 118.207C29.4528 118.248 29.3306 118.248 29.2491 118.248Z" fill="#F6A978"/>
<path d="M147.946 84.8873C147.986 84.8873 148.068 84.8873 148.109 84.8466C148.475 84.7244 148.679 84.3171 148.557 83.9505C147.823 80.9769 146.316 78.3293 144.972 76.1297C144.768 75.8038 144.361 75.7224 144.076 75.9668C143.791 76.2112 143.709 76.6592 143.913 76.9851C145.217 79.0625 146.642 81.5879 147.335 84.3578C147.375 84.6837 147.661 84.8873 147.946 84.8873Z" fill="#F6A978"/>
<path d="M134.789 110.753C134.789 110.753 134.83 110.794 134.87 110.794C135.196 110.957 135.603 110.834 135.807 110.509C136.907 108.635 138.088 106.72 139.351 104.643C139.555 104.317 139.473 103.869 139.147 103.706C138.821 103.502 138.414 103.665 138.21 103.991C136.907 106.069 135.766 108.024 134.626 109.898C134.463 110.142 134.544 110.549 134.789 110.753Z" fill="#F6A978"/>
<path d="M138.496 84.7244C138.577 84.7244 138.618 84.7244 138.699 84.6837C139.025 84.5615 139.229 84.1541 139.107 83.7468C138.74 82.5248 138.536 81.0584 138.333 79.755L138.251 79.1847C138.21 78.7774 137.844 78.533 137.477 78.5737C137.111 78.6552 136.866 79.0218 136.948 79.4291L137.029 79.9586C137.233 81.3028 137.436 82.8099 137.844 84.1541C137.966 84.5207 138.21 84.7244 138.496 84.7244Z" fill="#F6A978"/>
<path d="M153.893 84.1541C153.974 84.1134 154.015 84.1134 154.056 84.0319C154.341 83.7875 154.381 83.3395 154.137 83.0136C153.404 81.9545 152.711 80.6511 152.1 79.5105L151.856 79.0217C151.652 78.6551 151.245 78.5329 150.96 78.6959C150.634 78.8588 150.553 79.3069 150.716 79.6735L150.96 80.1623C151.571 81.3843 152.304 82.7284 153.119 83.869C153.322 84.1541 153.608 84.2356 153.893 84.1541Z" fill="#F6A978"/>
<path d="M140.288 52.423C140.329 52.423 140.41 52.423 140.451 52.3822C140.817 52.3008 141.021 51.8934 140.94 51.4861L140.288 48.5533C140.206 48.146 139.84 47.9423 139.473 48.0238C139.107 48.1052 138.903 48.5126 138.984 48.9199L139.636 51.8527C139.718 52.1786 140.003 52.423 140.288 52.423Z" fill="#F6A978"/>
<path d="M143.995 58.2071C144.035 58.2071 144.117 58.2071 144.157 58.1663C144.524 58.0849 144.728 57.6775 144.646 57.2702L143.995 54.3374C143.913 53.9301 143.546 53.7264 143.18 53.8079C142.813 53.8894 142.61 54.2967 142.691 54.704L143.343 57.6368C143.424 57.9627 143.709 58.2071 143.995 58.2071Z" fill="#F6A978"/>
<path d="M141.754 63.4617C141.795 63.4617 141.836 63.4617 141.917 63.4617C142.284 63.3802 142.487 62.9729 142.406 62.5655C141.958 60.3252 141.306 58.0849 140.654 55.8853C140.532 55.5187 140.166 55.2743 139.84 55.4372C139.514 55.5594 139.31 55.9667 139.432 56.3741C140.084 58.5329 140.736 60.7325 141.184 62.8914C141.184 63.2173 141.469 63.4617 141.754 63.4617Z" fill="#F6A978"/>
<path d="M131.123 108.146C131.408 108.268 131.775 108.146 131.978 107.861C133.689 105.213 134.87 102.036 135.807 99.4698C135.929 99.1032 135.766 98.6959 135.441 98.5737C135.115 98.4515 134.707 98.6551 134.585 99.0625C133.648 101.547 132.508 104.643 130.919 107.128C130.715 107.454 130.756 107.902 131.041 108.105C131.082 108.146 131.082 108.146 131.123 108.146Z" fill="#F6A978"/>
<path d="M78.4956 68.8792C57.4365 49.2865 41.3469 74.9892 52.2227 84.9281C59.5954 91.6898 88.3123 85.0095 98.4549 81.588C108.068 78.3293 109.249 77.6368 108.068 72.5859C106.316 65.091 117.07 63.9097 105.746 61.588C84.3204 57.2702 80.4101 70.6715 78.4956 68.8792Z" fill="#FDEBC9"/>
<path d="M71.4081 94.9892C70.349 100.692 72.9559 106.109 79.1881 106.517C85.2573 106.924 88.8011 100.284 86.8052 95.0299C86.2349 93.5228 83.7909 94.1745 84.3612 95.6816C85.8683 99.6735 83.5873 103.91 79.1474 103.991C74.626 104.032 73.0781 99.3884 73.8113 95.6409C74.1372 94.093 71.6932 93.4006 71.4081 94.9892Z" fill="#61594D"/>
<path d="M133.404 61.3843C133.404 64.5207 127.579 67.0462 120.451 67.0462C113.282 67.0462 107.498 64.5207 107.498 61.3843C107.498 58.2478 113.322 55.7224 120.451 55.7224C127.62 55.7224 133.404 58.2478 133.404 61.3843Z" fill="#E8A894"/>
<path d="M36.5404 67.4535C43.6943 67.4535 49.4936 64.9186 49.4936 61.7916C49.4936 58.6646 43.6943 56.1297 36.5404 56.1297C29.3866 56.1297 23.5873 58.6646 23.5873 61.7916C23.5873 64.9186 29.3866 67.4535 36.5404 67.4535Z" fill="#E8A894"/>
<path d="M91.4895 73.7672C91.408 75.1114 91.0007 76.4963 90.3897 77.6369C88.1086 81.8731 83.5465 85.865 78.4548 85.865C71.3673 85.865 65.8683 77.7998 65.8683 73.7672C65.8683 69.7346 69.575 64.2356 78.2512 68.5533C79.5954 69.2051 81.7542 66.1094 86.8051 67.0462C90.3897 67.7387 91.6931 70.7529 91.4895 73.7672Z" fill="#423D33"/>
<path d="M90.2674 71.2824C89.9416 72.3008 88.3122 72.7081 86.6014 72.2193C84.8906 71.6898 83.7501 70.4678 84.0352 69.4087C84.3611 68.3904 85.9904 67.983 87.7012 68.4718C89.412 69.0014 90.5525 70.2641 90.2674 71.2824Z" fill="#EFF3EF"/>
<path d="M55.6036 64.5615C55.6036 70.1419 51.9376 74.6226 47.4569 74.6226C42.9763 74.6226 39.3103 70.1012 39.3103 64.5615C39.3103 58.981 42.9356 54.5004 47.4569 54.5004C51.9783 54.5004 55.6036 59.0217 55.6036 64.5615Z" fill="#423D33"/>
<path d="M52.3448 67.6165C54.2795 67.6165 55.8479 66.0481 55.8479 64.1134C55.8479 62.1787 54.2795 60.6104 52.3448 60.6104C50.4102 60.6104 48.8418 62.1787 48.8418 64.1134C48.8418 66.0481 50.4102 67.6165 52.3448 67.6165Z" fill="white"/>
<path d="M48.6789 59.6328C48.6789 60.5696 47.9457 61.3028 47.0089 61.3028C46.072 61.3028 45.3388 60.5696 45.3388 59.6328C45.3388 58.6959 46.072 57.9627 47.0089 57.9627C47.9457 57.9627 48.6789 58.6959 48.6789 59.6328Z" fill="white"/>
<path d="M108.923 74.6226C113.423 74.6226 117.07 70.1181 117.07 64.5615C117.07 59.0049 113.423 54.5004 108.923 54.5004C104.424 54.5004 100.777 59.0049 100.777 64.5615C100.777 70.1181 104.424 74.6226 108.923 74.6226Z" fill="#423D33"/>
<path d="M117.314 64.1134C117.314 66.0686 115.726 67.6165 113.811 67.6165C111.856 67.6165 110.308 66.0279 110.308 64.1134C110.308 62.1582 111.897 60.6104 113.811 60.6104C115.726 60.6104 117.314 62.1989 117.314 64.1134Z" fill="white"/>
<path d="M110.145 59.6328C110.145 60.5696 109.412 61.3028 108.475 61.3028C107.538 61.3028 106.805 60.5696 106.805 59.6328C106.805 58.6959 107.538 57.9627 108.475 57.9627C109.371 57.9627 110.145 58.6959 110.145 59.6328Z" fill="white"/>
</svg>
