<svg width="161" height="139" viewBox="0 0 161 139" fill="none" xmlns="http://www.w3.org/2000/svg">
<path d="M152.833 78.8897C152.833 107.607 134.137 130.906 79.7987 130.906C21.0207 130.906 6.76408 107.607 6.76408 78.8897C6.76408 50.1728 39.4728 26.8734 79.7987 26.8734C120.125 26.9141 152.833 50.1728 152.833 78.8897Z" fill="#E17B6F"/>
<path d="M141.021 54.2461C142.569 57.6269 146.357 61.0893 148.964 63.6147C150.226 63.4518 152.467 64.1443 154.218 63.9406C155.725 63.7369 156.907 63.1667 157.599 65.0404C158.862 68.3398 153.037 70.6208 155.237 73.3092C156.54 74.8978 158.495 73.7573 159.677 74.7756C161.102 76.0384 159.188 78.1157 158.495 79.2155C157.681 80.5597 155.603 82.0261 155.196 83.3703C154.422 85.855 156.784 85.5699 157.64 86.8734C158.699 88.5842 156.622 90.7023 155.644 92.0465C152.793 95.9569 147.538 100.845 142.813 101.904" fill="#E5997C"/>
<path d="M19.4321 52.2909C17.8842 55.6717 14.0961 59.1341 11.4891 61.6595C10.2264 61.4966 7.98608 62.1891 6.23455 61.9854C4.72742 61.7817 3.54616 61.2115 2.85369 63.0852C1.59096 66.3846 7.41581 68.6656 5.21622 71.354C3.91276 72.9426 1.95756 71.8021 0.776301 72.8204C-0.649361 74.0832 1.2651 76.1605 1.95756 77.2603C2.77223 78.6045 4.84962 80.0709 5.25695 81.4151C6.03088 83.8999 3.66836 83.6147 2.81296 84.9182C1.7539 86.629 3.83129 88.7471 4.80889 90.0913C7.66021 94.0017 12.9148 98.8897 17.6398 99.9487" fill="#E5997C"/>
<path d="M54.7885 31.8428C58.7396 25.9365 62.6093 19.6229 69.5339 16.9345C71.0411 16.3642 72.8741 15.5903 73.4851 17.1381C74.1368 18.7267 72.3445 19.8673 72.426 21.3337C74.9515 22.352 77.314 20.4375 79.5543 19.4192C80.7356 18.8897 88.8415 15.4681 88.2305 18.6045C88.1083 19.3377 86.3975 21.7003 86.927 22.4335C88.7193 24.7145 92.1816 21.6188 94.4219 22.3927C97.4362 23.4925 94.9922 25.2848 94.4627 27.3622C93.7295 30.3357 96.9881 30.3357 99.1062 30.906" fill="#E17B6F"/>
<path d="M148.76 78.8897C148.76 106.018 129.412 134.653 78.1286 134.653C59.8802 134.653 41.1429 129.154 26.6012 117.016C21.0207 112.372 16.7844 106.344 14.259 99.5414C13.8924 98.5231 13.5258 97.5047 13.2407 96.4457C11.4077 90.3764 9.24881 84.8367 9.45247 78.3194C9.61541 72.3316 11.2855 66.466 13.9739 61.13C19.4321 50.3357 28.8822 41.578 39.5543 35.9569C50.2671 30.3357 65.0533 26.629 79.0248 26.629C91.7335 26.629 106.235 28.8693 116.581 33.5943C137.192 43.0444 148.76 60.8041 148.76 78.8897Z" fill="#E5997C"/>
<path d="M143.261 80.9263C142.324 80.5597 141.428 80.1931 140.532 79.7858C139.921 79.5414 138.658 79.2155 138.251 78.6453C137.803 77.9935 138.536 76.5679 139.025 75.9976C140.125 74.7349 143.261 71.3133 140.939 69.8469C138.617 68.4212 134.789 70.4986 132.752 68.4212C131.448 67.1178 133.444 66.3438 134.015 65.2033C134.259 64.633 134.626 63.3703 134.055 63.0037C133.648 62.7593 132.222 63.0852 131.693 63.0037C123.628 62.1483 118.088 55.6717 106.438 57.0159C96.3364 58.1565 84.3201 62.6371 80.6948 73.5129C79.9616 75.7532 79.0655 78.075 78.6174 80.3968C78.4952 79.6636 78.2916 78.9304 78.0064 78.1972C76.8659 75.1422 75.6439 72.0057 73.7702 69.2359C71.3669 65.6514 68.0675 62.3112 63.9942 60.356C62.2834 59.5414 60.5726 58.9304 58.9026 58.5638C47.6602 55.9161 37.2325 62.189 25.7865 63.411C25.257 63.4518 23.8313 63.1259 23.424 63.411C22.8537 63.8184 23.1796 65.0811 23.4647 65.6106C23.9942 66.7512 25.9902 67.5251 24.7274 68.8286C22.6908 70.9059 18.8618 68.8286 16.54 70.2542C14.2183 71.7206 17.3547 75.1422 18.4545 76.4049C18.9433 76.9752 19.7172 78.4009 19.2284 79.0526C18.8211 79.6229 17.5991 79.908 16.9474 80.1931C16.0513 80.5597 15.1144 80.967 14.2183 81.3336C12.9963 81.8224 12.3445 82.0668 12.9148 83.4925C13.5665 85.1218 15.0737 85.6514 16.7437 86.1809C17.6398 86.466 19.6358 86.8326 19.7987 87.9324C20.0431 89.3581 17.0696 89.5617 16.092 89.521C11.7743 89.3174 16.0105 92.2909 16.8659 92.9833C17.762 93.7573 19.147 93.798 18.6582 95.2644C18.2101 96.6086 15.6847 95.9569 15.1551 97.0567C13.9331 99.6636 18.4138 101.211 19.4321 102.882C20.4097 104.429 17.7213 105.814 16.9881 106.833C15.2366 109.195 18.984 109.847 20.8985 110.376C22.7722 110.865 24.9311 110.865 26.7233 111.476C27.9046 111.884 29.6154 112.943 28.3527 113.961C27.538 114.613 25.9902 114.368 25.0126 114.531C25.2162 116.527 27.3343 117.668 29.8191 118.197C29.4525 119.949 35.3995 124.144 36.9474 125C40.98 127.24 45.4606 128.991 49.9005 130.376C58.9433 133.268 68.5563 134.653 78.0879 134.653C88.5563 134.653 99.1062 133.594 109.127 130.621C113.159 129.44 117.11 127.973 120.817 126.059C121.795 125.57 124.727 124.226 124.605 122.922C124.483 121.822 122.202 121.497 121.713 120.478C121.347 119.745 121.591 118.93 122.039 118.197C126.072 118.401 132.059 117.545 132.467 114.083C131.489 113.961 129.941 114.205 129.127 113.513C127.864 112.454 129.575 111.395 130.756 111.028C132.548 110.417 134.707 110.417 136.54 109.928C138.455 109.44 142.243 108.788 140.45 106.385C139.717 105.366 137.029 104.022 138.006 102.433C139.025 100.763 143.505 99.2155 142.283 96.6086C141.754 95.4681 139.228 96.1605 138.78 94.8163C138.292 93.3499 139.677 93.3092 140.573 92.5353C141.387 91.8021 145.664 88.8693 141.347 89.0729C140.369 89.1137 137.436 88.9508 137.64 87.4844C137.803 86.4253 139.799 86.018 140.695 85.7328C142.324 85.2033 143.872 84.6738 144.524 83.0444C145.135 81.6595 144.483 81.4151 143.261 80.9263Z" fill="#FBFBFA"/>
<path d="M66.4382 33.4721C66.316 33.4721 66.2345 33.4314 66.1123 33.3907C65.8272 33.2277 65.7457 32.8611 65.9087 32.576C67.0899 30.7023 68.6785 28.9915 69.5339 28.1361C69.7783 27.8917 70.1449 27.8917 70.3893 28.1361C70.6337 28.3805 70.6337 28.7471 70.3893 28.9915C69.5747 29.8062 68.0268 31.4355 66.927 33.2277C66.8455 33.3499 66.6419 33.4721 66.4382 33.4721Z" fill="#E1805C"/>
<path d="M77.4769 34.2461C77.3954 34.2461 77.2733 34.2053 77.1918 34.1646C76.9067 34.0017 76.7844 33.6351 76.9474 33.3499C78.2916 30.8652 80.4504 28.91 83.3425 27.5658C83.6276 27.4436 83.9942 27.5658 84.1164 27.851C84.2386 28.1361 84.1164 28.5027 83.8313 28.6249C81.1836 29.8469 79.2284 31.6392 78.0064 33.8795C77.8842 34.1239 77.6806 34.2461 77.4769 34.2461Z" fill="#E1805C"/>
<path d="M90.5523 48.7878C90.4301 48.8286 90.2671 48.8286 90.1042 48.7471C89.8191 48.6249 89.6969 48.2583 89.8191 47.9732C90.6745 46.1809 91.7743 44.4701 92.8741 42.8408C93.037 42.5557 93.4036 42.4742 93.6887 42.6779C93.9739 42.8408 94.0553 43.2074 93.8517 43.4925C92.7926 45.0811 91.6928 46.7512 90.8781 48.462C90.8374 48.6249 90.7152 48.7471 90.5523 48.7878Z" fill="#E1805C"/>
<path d="M87.2936 34.5312C87.1307 34.5312 87.0085 34.4497 86.8863 34.3275C86.6826 34.0832 86.6826 33.7166 86.927 33.4722C88.3934 32.128 90.0635 30.9467 91.6521 29.8469C91.9372 29.6432 92.3038 29.7247 92.4667 30.0098C92.6704 30.295 92.5889 30.6616 92.3038 30.8245C90.7152 31.9243 89.0859 33.0648 87.7009 34.3683C87.5787 34.4905 87.4158 34.5312 87.2936 34.5312Z" fill="#E1805C"/>
<path d="M78.6582 48.4212C78.3323 48.4212 78.0879 48.1768 78.0879 47.8917C77.8842 45.3662 78.4138 43.0852 79.7172 40.6819C79.8802 40.3968 80.2468 40.2746 80.5319 40.4375C80.817 40.6004 80.9392 40.967 80.7763 41.2522C79.5543 43.4925 79.1062 45.5292 79.2692 47.8102C79.3099 48.1361 79.0655 48.4212 78.7396 48.462C78.6989 48.4212 78.6989 48.4212 78.6582 48.4212Z" fill="#E1805C"/>
<path d="M71.0003 43.1259C70.6745 43.1259 70.4301 42.8815 70.4301 42.5149C70.4301 41.0078 70.8374 39.5007 71.204 38.1972C71.2855 37.8713 71.3669 37.5455 71.4484 37.2603C71.5299 36.9345 71.8557 36.7715 72.1816 36.8123C72.5075 36.8937 72.7111 37.2196 72.6297 37.5455C72.5482 37.8713 72.4667 38.1972 72.3853 38.5231C72.0187 39.8265 71.6521 41.2115 71.6521 42.5557C71.5706 42.8408 71.3262 43.1259 71.0003 43.1259Z" fill="#E1805C"/>
<path d="M72.9555 53.35C72.6704 53.35 72.426 53.1463 72.3853 52.8611C72.1816 51.517 71.9779 50.0913 71.7743 48.5027C71.7335 48.1768 71.9779 47.8917 72.3038 47.851C72.6297 47.8102 72.9148 48.0546 72.9555 48.3805C73.1592 49.9691 73.3629 51.354 73.5258 52.6982C73.5665 53.0241 73.3629 53.3092 73.037 53.35C72.9963 53.35 72.9963 53.35 72.9555 53.35Z" fill="#E1805C"/>
<path d="M77.4769 63.0445C77.151 63.0445 76.9066 62.7593 76.9066 62.4335C76.9066 61.7817 76.8659 61.1707 76.8252 60.519C76.7844 59.8673 76.7437 59.2155 76.7437 58.4823C76.7437 58.1565 76.9881 57.8713 77.314 57.8713C77.6398 57.8713 77.925 58.1565 77.925 58.4823C77.925 59.1341 77.9657 59.7451 78.0064 60.3968C78.0472 61.0485 78.0879 61.7003 78.0879 62.4335C78.0879 62.7593 77.8028 63.0445 77.4769 63.0445Z" fill="#E1805C"/>
<path d="M80.4504 67.5658C80.1246 67.5658 79.8394 67.2807 79.8394 66.9956C79.8394 66.1809 79.8394 65.3255 80.0431 64.4701C80.1246 64.1442 80.4504 63.9406 80.7763 64.0221C81.1022 64.1035 81.3058 64.4294 81.2244 64.7553C81.0614 65.4884 81.0614 66.2216 81.0614 66.9956C81.0207 67.2807 80.7763 67.5658 80.4504 67.5658Z" fill="#E1805C"/>
<path d="M68.9229 55.7532C68.6378 55.7532 68.3527 55.5495 68.3527 55.2237C68.1897 53.7573 67.8639 52.4131 67.5788 50.9874L67.4158 50.1728C67.3344 49.8469 67.538 49.521 67.8639 49.4803C68.1897 49.3988 68.5156 49.6025 68.5563 49.9284L68.7193 50.743C69.0451 52.2094 69.371 53.5944 69.5339 55.1015C69.5747 55.4273 69.3303 55.7125 69.0044 55.7532C68.9637 55.7532 68.9229 55.7532 68.9229 55.7532Z" fill="#E1805C"/>
<path d="M64.6867 48.4212C64.6459 48.4212 64.646 48.4212 64.6052 48.4212C64.2794 48.3805 64.035 48.0954 64.0757 47.7695C64.1572 46.9956 64.2386 46.2216 64.2794 45.4477C64.3201 44.6738 64.3608 43.8591 64.483 43.0444C64.5237 42.7186 64.8089 42.4742 65.1348 42.5149C65.4606 42.5556 65.705 42.8408 65.6643 43.1666C65.5828 43.9406 65.5014 44.7145 65.4606 45.4884C65.4199 46.2624 65.3792 47.077 65.257 47.8917C65.2162 48.2176 64.9718 48.4212 64.6867 48.4212Z" fill="#E1805C"/>
<path d="M83.7906 50.2135C83.7498 50.2135 83.7498 50.2135 83.7091 50.2135C83.3832 50.1728 83.1796 49.8876 83.2203 49.5618C83.424 48.2176 83.6276 46.8326 83.6276 45.4884C83.6276 45.1626 83.872 44.8774 84.2386 44.8774C84.5645 44.8774 84.8496 45.1626 84.8496 45.4884C84.8496 46.9141 84.646 48.3398 84.4423 49.7247C84.3201 50.0098 84.0757 50.2135 83.7906 50.2135Z" fill="#E1805C"/>
<path d="M82.4056 59.0933C82.0798 59.0933 81.7946 58.8489 81.7946 58.4823C81.7946 58.0342 81.8354 57.6269 81.9168 57.2196C81.9576 56.853 81.9983 56.4864 81.9983 56.1198C81.9983 55.7939 82.2427 55.5088 82.6093 55.5088C82.9352 55.5088 83.2203 55.7939 83.2203 56.1198C83.2203 56.5679 83.1796 56.9752 83.0981 57.3825C83.0574 57.7491 83.0166 58.1157 83.0166 58.4823C83.0166 58.8082 82.7315 59.0933 82.4056 59.0933Z" fill="#E1805C"/>
<path d="M87.538 42.9223C87.4565 42.9223 87.3751 42.9223 87.3343 42.8815C87.0492 42.7593 86.8863 42.4335 87.0085 42.1076C87.1714 41.6595 87.3343 41.13 87.4565 40.6005C87.6195 40.0709 87.7824 39.5007 87.9861 38.9711C88.1083 38.686 88.4341 38.5231 88.76 38.6453C89.0451 38.7675 89.2081 39.0933 89.0859 39.4192C88.8822 39.8673 88.76 40.3968 88.5971 40.9263C88.4341 41.4559 88.3119 42.0261 88.0675 42.5557C87.9861 42.8001 87.7824 42.9223 87.538 42.9223Z" fill="#E1805C"/>
<path d="M86.7641 58.4823C86.7234 58.4823 86.7234 58.4823 86.6826 58.4823C86.3568 58.4416 86.1531 58.1565 86.1938 57.8306C86.2753 57.1381 86.4382 56.3642 86.6012 55.631C86.7641 54.8978 86.8863 54.1646 87.0085 53.5129C87.0492 53.187 87.3751 52.9834 87.6602 53.0241C87.9861 53.0648 88.1898 53.3499 88.149 53.6758C88.0676 54.3683 87.9046 55.1422 87.7417 55.8754C87.5788 56.6086 87.4566 57.3418 87.3344 57.9935C87.2936 58.2787 87.0492 58.4823 86.7641 58.4823Z" fill="#E1805C"/>
<path d="M60.5319 42.3112C60.206 42.3112 59.9209 42.0261 59.9209 41.7002C59.9209 40.0709 60.0838 38.5638 60.2468 36.9752L60.2875 36.4864C60.3282 36.1605 60.6134 35.9161 60.9392 35.9569C61.2651 35.9976 61.5095 36.2827 61.4688 36.6086L61.428 37.0974C61.2651 38.6453 61.1022 40.1117 61.1022 41.6595C61.1429 42.0668 60.8578 42.3112 60.5319 42.3112Z" fill="#E1805C"/>
<path d="M73.6887 103.289C73.037 106.833 74.6663 110.213 78.536 110.458C82.3242 110.702 84.5238 106.588 83.3018 103.289C82.9352 102.352 81.428 102.759 81.7946 103.696C82.7315 106.181 81.3058 108.829 78.536 108.869C75.7254 108.91 74.7478 106.018 75.1959 103.655C75.3995 102.719 73.8517 102.311 73.6887 103.289Z" fill="#716A5B"/>
<path d="M129.778 88.0546C129.778 90.8245 124.646 93.0648 118.292 93.0648C111.937 93.0648 106.805 90.8245 106.805 88.0546C106.805 85.2848 111.937 83.0444 118.292 83.0444C124.646 83.0444 129.778 85.2848 129.778 88.0546Z" fill="#F0B899"/>
<path d="M53.648 87.6066C53.648 90.3764 48.5156 92.6167 42.1612 92.6167C35.8069 92.6167 30.7152 90.3764 30.7152 87.6066C30.7152 84.8367 35.8476 82.5964 42.202 82.5964C48.5563 82.5964 53.648 84.8774 53.648 87.6066Z" fill="#F0B899"/>
<path d="M87.538 90.2135C87.4565 91.1503 87.2122 92.0872 86.7641 92.9019C85.1755 95.8347 81.9983 98.6045 78.4952 98.6045C73.5665 98.6045 69.7376 93.0241 69.7376 90.2135C69.7376 87.4029 72.3445 83.574 78.3323 86.5882C79.2692 87.0363 80.7763 84.8774 84.2794 85.5292C86.8048 86.018 87.7009 88.0953 87.538 90.2135Z" fill="#423D33"/>
<path d="M86.7234 88.4619C86.5197 89.1951 85.3792 89.4803 84.1572 89.1137C82.9759 88.7471 82.1612 87.8917 82.3649 87.1585C82.5686 86.4253 83.7091 86.1401 84.9311 86.5067C86.1124 86.8733 86.927 87.7695 86.7234 88.4619Z" fill="#F3F5F3"/>
<path d="M58.5767 72.4131C58.5767 77.3418 55.3588 81.3337 51.3669 81.3337C47.3751 81.3337 44.1572 77.3418 44.1572 72.4131C44.1572 67.4844 47.3751 63.4925 51.3669 63.4925C55.3181 63.4925 58.5767 67.4844 58.5767 72.4131Z" fill="#61594D"/>
<path d="M58.7804 72.0465C58.7804 73.7573 57.3954 75.1422 55.6847 75.1422C53.9739 75.1422 52.5889 73.7573 52.5889 72.0465C52.5889 70.3357 53.9739 68.9507 55.6847 68.9507C57.3954 68.9507 58.7804 70.3357 58.7804 72.0465Z" fill="white"/>
<path d="M52.426 68.0546C52.426 68.8693 51.7743 69.521 50.9596 69.521C50.1449 69.521 49.4932 68.8693 49.4932 68.0546C49.4932 67.24 50.1449 66.5883 50.9596 66.5883C51.7743 66.5883 52.426 67.24 52.426 68.0546Z" fill="white"/>
<path d="M114.096 72.4131C114.096 77.3418 110.878 81.3337 106.886 81.3337C102.894 81.3337 99.6765 77.3418 99.6765 72.4131C99.6765 67.4844 102.894 63.4925 106.886 63.4925C110.837 63.4925 114.096 67.4844 114.096 72.4131Z" fill="#61594D"/>
<path d="M114.3 72.0465C114.3 73.7573 112.915 75.1422 111.204 75.1422C109.493 75.1422 108.108 73.7573 108.108 72.0465C108.108 70.3357 109.493 68.9507 111.204 68.9507C112.915 68.9507 114.3 70.3357 114.3 72.0465Z" fill="white"/>
<path d="M107.945 68.0546C107.945 68.8693 107.294 69.521 106.479 69.521C105.664 69.521 105.013 68.8693 105.013 68.0546C105.013 67.24 105.664 66.5883 106.479 66.5883C107.294 66.5883 107.945 67.24 107.945 68.0546Z" fill="white"/>
<path d="M12.9963 59.1748C12.9963 59.1748 1.8761 36.7308 14.4627 7.19925C14.4627 7.19925 18.9433 -1.02886 22.8944 5.28479C26.8456 11.5984 46.6826 33.9202 46.6826 33.9202" fill="#E17B6F"/>
<path d="M15.481 59.1748C15.481 59.1748 4.40156 37.3011 16.0513 9.9691C16.0513 9.9691 19.1062 2.96299 22.7315 8.78784C26.3975 14.6127 46.6419 35.794 46.6419 35.794" fill="#E5997C"/>
<path d="M19.2692 54.0832C19.2692 54.0832 11.5299 38.8489 19.6765 19.7451C19.6765 19.7451 21.7946 14.8571 24.3608 18.9304C26.927 23.0037 41.0614 37.7492 41.0614 37.7492" fill="#F0B89A"/>
<path d="M25.4199 20.3968C24.9718 19.8265 24.6052 19.297 24.3608 18.8897C21.8354 14.8163 19.6765 19.7043 19.6765 19.7043C11.5299 38.8082 19.2692 54.0424 19.2692 54.0424L23.0574 51.1911C18.0472 38.3194 17.6398 29.6432 25.4199 20.3968Z" fill="#F1A793"/>
<path d="M12.7111 57.9935C10.9596 56.5679 4.19789 51.1911 7.53801 48.5842C8.67854 47.688 8.59708 47.4436 8.14901 45.9772C8.18974 45.9365 8.18975 45.9365 8.23048 45.9772C7.53801 44.1442 6.43822 42.5556 6.23455 40.5597C5.94942 38.1565 7.25288 37.0567 8.51561 35.2644C8.35268 34.6534 8.23048 33.5943 7.94534 32.7797C7.57875 31.7206 7.17141 30.6616 7.08995 29.521C7.00848 28.5027 7.00848 27.7695 7.86388 27.1992C8.80074 26.5475 9.28954 26.4253 9.53394 25.2033" fill="#E17B6F"/>
<path d="M19.595 55.631C19.3506 53.187 19.4728 52.4538 19.3099 50.0098C19.6358 48.6249 19.147 43.9406 20.8985 43.9406C22.1205 43.9406 22.5278 45.407 23.4647 45.6514C25.9087 46.2217 24.8089 40.6005 25.6236 38.7267C27.0085 35.5496 28.7193 38.2787 30.0635 39.9487C32.9148 43.4111 32.6704 37.6677 34.3405 36.405C36.7437 34.6534 39.9616 39.297 41.3873 40.6412" fill="#E5997C"/>
<path d="M142.243 58.8082C142.243 58.8082 153.363 36.3642 140.776 6.83264C140.776 6.83264 136.296 -1.39547 132.345 4.91818C128.393 11.2318 108.556 33.5536 108.556 33.5536" fill="#E17B6F"/>
<path d="M139.758 58.8082C139.758 58.8082 150.837 36.9345 139.188 9.60249C139.188 9.60249 136.133 2.59639 132.507 8.42123C128.841 14.2461 108.597 35.4273 108.597 35.4273" fill="#E5997C"/>
<path d="M135.97 53.6758C135.97 53.6758 143.709 38.4416 135.562 19.3377C135.562 19.3377 133.444 14.4497 130.878 18.5231C128.353 22.5964 114.178 37.3418 114.178 37.3418" fill="#F0B89A"/>
<path d="M129.819 20.0302C130.267 19.4599 130.634 18.9304 130.878 18.5231C133.404 14.4497 135.562 19.3377 135.562 19.3377C143.709 38.4416 135.97 53.6758 135.97 53.6758L132.182 50.8245C137.233 37.9121 137.64 29.2766 129.819 20.0302Z" fill="#F1A793"/>
<path d="M142.528 57.627C144.279 56.2013 151.041 50.8245 147.701 48.2176C146.56 47.3215 146.642 47.0771 147.09 45.6107C147.049 45.5699 147.049 45.5699 147.008 45.6107C147.701 43.7777 148.801 42.1891 149.004 40.1931C149.29 37.7899 147.986 36.6901 146.723 34.8978C146.886 34.2868 147.008 33.2278 147.294 32.4131C147.66 31.354 148.068 30.295 148.149 29.1544C148.23 28.0954 148.23 27.4029 147.375 26.8327C146.438 26.1809 145.949 26.0587 145.705 24.8367" fill="#E17B6F"/>
<path d="M135.685 55.2644C135.929 52.8204 135.807 52.0872 135.97 49.6432C135.644 48.2583 136.133 43.574 134.381 43.574C133.159 43.574 132.752 45.0404 131.815 45.2848C129.371 45.855 130.471 40.2339 129.656 38.3601C128.271 35.1829 126.56 37.9121 125.216 39.5821C122.365 43.0445 122.65 37.3011 120.939 36.0383C118.536 34.2868 115.318 38.9304 113.892 40.2746" fill="#E5997C"/>
</svg>
