<svg width="161" height="138" viewBox="0 0 161 138" fill="none" xmlns="http://www.w3.org/2000/svg">
<path d="M148.627 8.11442C142.843 6.93316 136.692 8.96982 131.071 12.1877C129.849 11.0065 127.731 14.1837 126.427 14.1837C125.409 14.1837 125.409 13.369 124.065 13.6948C122.924 13.98 122.15 14.9169 121.376 15.6908C120.48 16.5869 119.828 17.9719 118.851 18.7051C117.425 19.8456 117.914 18.868 116.692 18.6643C113.515 18.0941 111.885 27.0553 111.274 28.9698L111.6 28.6847C111.193 29.1735 110.949 29.4586 110.949 29.4586L140.969 49.9067C158.362 22.0859 152.13 8.84762 148.627 8.11442Z" fill="#525656"/>
<path d="M130.786 22.2488C128.953 24.1225 127.283 26.2407 125.816 28.4403C125.368 29.092 120.847 36.1388 121.173 36.3832L138.484 48.481C148.545 32.3506 150.46 21.8822 149.482 15.0797C148.545 9.29563 135.47 18.2162 133.881 19.479C132.741 20.3344 131.723 21.2712 130.786 22.2488Z" fill="#D3D5DB"/>
<path d="M126.101 39.8456C130.989 31.4138 137.873 24.7335 148.953 22.0044C149.116 21.9637 149.238 21.9637 149.401 22.0044C149.727 19.3567 149.686 17.0349 149.401 15.0797C148.464 9.29563 135.389 18.2162 133.8 19.479C132.7 20.3344 131.723 21.2712 130.745 22.2488C128.912 24.1225 127.242 26.2407 125.775 28.4403C125.327 29.092 120.806 36.1388 121.132 36.3832C121.132 36.3832 123.291 37.8904 126.101 39.8456Z" fill="#C0C2C8"/>
<path d="M14.5332 8.11442C20.3173 6.93316 26.468 8.96982 32.0892 12.1877C33.3112 11.0065 35.4293 14.1837 36.7328 14.1837C37.7511 14.1837 37.7511 13.369 39.0953 13.6948C40.2358 13.98 41.0097 14.9169 41.7837 15.6908C42.6798 16.5869 43.3315 17.9719 44.3091 18.7051C45.7348 19.8456 45.246 18.868 46.468 18.6643C49.6452 18.0941 51.2745 27.0553 51.8855 28.9698L51.5596 28.6847C51.967 29.1735 52.2114 29.4586 52.2114 29.4586L22.191 49.9067C4.79793 22.0859 11.0301 8.84762 14.5332 8.11442Z" fill="#525656"/>
<path d="M32.3744 22.2488C34.2074 24.1225 35.8774 26.2407 37.3438 28.4403C37.7919 29.092 42.3133 36.1388 41.9874 36.3832L24.6758 48.481C14.6147 32.3506 12.7002 21.8822 13.6778 15.0797C14.6147 9.29563 27.69 18.2162 29.2786 19.479C30.4192 20.3344 31.4375 21.2712 32.3744 22.2488Z" fill="#D3D5DB"/>
<path d="M37.0587 39.8456C32.1707 31.4138 25.2868 24.7335 14.2074 22.0044C14.0444 21.9637 13.9222 21.9637 13.7593 22.0044C13.4334 19.3567 13.4742 17.0349 13.7593 15.0797C14.6961 9.29563 27.7715 18.2162 29.3601 19.479C30.4599 20.3344 31.4375 21.2712 32.4151 22.2488C34.2481 24.1225 35.9181 26.2407 37.3845 28.4403C37.8326 29.092 42.354 36.1388 42.0281 36.3832C42.0281 36.3832 39.8285 37.8904 37.0587 39.8456Z" fill="#C0C2C8"/>
<path d="M159.217 89.9881C159.91 88.8476 161.906 86.6887 160.439 85.3853C159.217 84.3262 157.222 85.5482 155.877 83.8782C154.004 81.5971 157.71 79.479 158.281 77.4831C159.299 73.8171 155.714 72.8394 153.393 71.4953C153.27 71.4138 153.148 71.3323 153.026 71.2509C152.863 70.2325 152.659 69.2142 152.415 68.1959C152.293 67.7071 152.13 67.1776 152.008 66.6888C151.845 66.1185 151.723 65.5482 151.519 65.0187C151.356 64.4891 151.193 64.0004 150.989 63.4708C150.786 62.9413 150.623 62.4118 150.378 61.8415C150.175 61.3527 149.971 60.8231 149.767 60.3343C149.523 59.8048 149.319 59.2753 149.034 58.7458C148.79 58.257 148.545 57.7682 148.301 57.2794C148.016 56.7498 147.731 56.2203 147.446 55.6908C147.201 55.2427 146.916 54.7539 146.631 54.3059C146.305 53.7356 145.938 53.2061 145.572 52.6358C145.287 52.2285 145.042 51.8211 144.757 51.4138C144.268 50.7213 143.78 50.0696 143.25 49.3772C143.046 49.1328 142.883 48.8476 142.639 48.6032C141.906 47.7071 141.132 46.811 140.358 45.9556C140.073 45.6297 139.747 45.3445 139.462 45.0187C138.932 44.4484 138.362 43.8782 137.792 43.3486C137.425 43.0228 137.059 42.6969 136.692 42.3303C136.122 41.8415 135.592 41.3527 135.022 40.8639C134.615 40.538 134.207 40.2122 133.8 39.8863C133.23 39.3975 132.619 38.9494 132.008 38.5014C131.6 38.1755 131.152 37.8904 130.745 37.5645C130.093 37.1165 129.441 36.6684 128.749 36.2203C128.301 35.9352 127.894 35.65 127.446 35.4056C126.672 34.9576 125.898 34.5095 125.124 34.0614C124.757 33.8578 124.35 33.6134 123.983 33.4097C122.802 32.758 121.58 32.1877 120.317 31.5767C119.462 31.1694 118.566 30.8028 117.629 30.4362C117.466 30.3548 117.262 30.314 117.099 30.2326C106.753 26.2814 93.4333 24.4077 81.6207 24.4077C67.2012 24.4077 51.9669 28.1959 40.9282 34.0207C39.1767 34.9576 37.4659 35.9352 35.7959 37.035C35.5515 37.1979 35.2663 37.3608 35.0219 37.5238C34.6553 37.7682 34.3295 38.0126 34.0036 38.2162C33.7185 38.4199 33.4333 38.5829 33.1482 38.7865C32.8223 39.0309 32.4965 39.2753 32.1706 39.5197C31.8855 39.7234 31.6003 39.927 31.3152 40.1714C30.9893 40.4158 30.7042 40.6602 30.3784 40.9046C30.0932 41.149 29.8081 41.3527 29.523 41.5971C29.2378 41.8415 28.912 42.0859 28.6268 42.3303C28.3417 42.5747 28.0566 42.8191 27.7714 43.0635C27.4863 43.3079 27.2012 43.5523 26.916 43.8374C26.6309 44.0818 26.3458 44.3669 26.0606 44.6113C25.7755 44.8557 25.5311 45.1409 25.246 45.3853C24.9608 45.6704 24.6757 45.9148 24.4313 46.1999C24.1869 46.4443 23.9018 46.7295 23.6574 47.0146C23.3722 47.2997 23.1278 47.5849 22.8427 47.9107C22.5983 48.1959 22.3539 48.4403 22.1095 48.7254C21.8244 49.0105 21.58 49.3364 21.3356 49.6623C21.0912 49.9474 20.8875 50.1918 20.6431 50.4769C20.3987 50.8028 20.1136 51.1287 19.8692 51.4545C19.6655 51.7397 19.4619 51.9841 19.2582 52.2692C19.0138 52.5951 18.7694 52.9617 18.525 53.3283C18.3213 53.6134 18.1584 53.8578 17.9547 54.1429C17.7103 54.5095 17.4659 54.9169 17.2215 55.2835C17.0586 55.5279 16.8957 55.7722 16.7327 56.0574C16.4476 56.5054 16.2032 56.9128 15.9588 57.3609C15.8366 57.5645 15.7144 57.7682 15.5922 58.0126C15.2256 58.6643 14.859 59.3568 14.5331 60.0085C14.1665 60.7417 13.7999 61.5156 13.4741 62.2896C11.9669 64.7336 10.5413 67.4219 8.05656 68.8883C5.73477 70.2325 2.15025 71.2509 3.16858 74.8761C3.73884 76.8721 7.40483 79.0309 5.57184 81.2712C4.22764 82.9413 2.23171 81.7193 1.00972 82.7784C-0.456679 84.0818 1.49851 86.2407 2.23171 87.3812C3.08711 88.7661 5.20524 90.314 5.6533 91.6582C6.42723 94.2244 3.98324 93.8985 3.16858 95.2834C2.06878 97.035 4.18691 99.2346 5.20524 100.619C7.20116 103.349 16.9364 111.292 24.5535 116.505C24.5942 116.546 24.635 116.587 24.6757 116.587C32.2521 122.901 41.6207 127.707 51.5189 130.925C60.969 134.184 70.9486 135.772 80.7653 135.772C80.7653 135.772 80.7653 135.772 80.8061 135.772C82.3132 135.772 83.7796 135.731 85.246 135.691C85.694 135.691 86.1828 135.65 86.6309 135.65C87.6085 135.609 88.5861 135.569 89.5637 135.487C90.0932 135.446 90.582 135.406 91.1115 135.365C92.0484 135.283 92.9445 135.202 93.8407 135.121C94.3295 135.08 94.7775 135.039 95.2663 134.958C96.3661 134.835 97.4252 134.672 98.4435 134.55C98.6879 134.51 98.9323 134.469 99.2175 134.428C100.48 134.224 101.702 134.021 102.883 133.776C103.332 133.695 103.78 133.573 104.187 133.491C104.961 133.328 105.735 133.165 106.468 133.002C106.957 132.88 107.446 132.758 107.934 132.636C108.627 132.473 109.279 132.269 109.971 132.106C110.46 131.984 110.949 131.821 111.397 131.699C112.089 131.495 112.782 131.251 113.433 131.047C113.841 130.925 114.248 130.803 114.655 130.64C115.633 130.314 116.611 129.947 117.547 129.581C117.995 129.418 118.444 129.214 118.892 129.011C119.421 128.807 119.951 128.562 120.48 128.318C120.969 128.114 121.417 127.87 121.906 127.666C122.354 127.463 122.843 127.218 123.291 126.974C123.78 126.729 124.228 126.485 124.676 126.241C125.124 125.996 125.531 125.752 125.938 125.548C126.386 125.304 126.835 125.059 127.283 124.774C127.894 124.408 128.505 124 129.116 123.634C129.238 123.552 129.401 123.471 129.523 123.389C135.674 120.864 153.474 106.974 156.244 103.186C157.262 101.801 159.38 99.6012 158.281 97.8497C157.425 96.5055 154.981 96.7906 155.796 94.2244C156.244 92.8802 158.362 91.3323 159.217 89.9881Z" fill="#A4A7AC"/>
<path d="M15.7552 62.5747C13.9222 65.2224 12.4558 68.644 9.60445 70.314C7.32339 71.6582 3.82033 72.5951 4.79793 76.1796C5.32746 78.1348 8.95272 80.2122 7.11972 82.4525C5.77553 84.0819 3.82033 82.9006 2.63907 83.9189C1.17267 85.1816 3.12787 87.2998 3.82033 88.3996C4.67573 89.7438 6.75312 91.2509 7.16045 92.5951C7.93438 95.0798 5.53113 94.7947 4.71646 96.1389C3.6574 97.8497 5.73479 100.009 6.71239 101.353C9.60444 105.304 29.0749 120.416 33.8407 121.475" fill="#ABAEB5"/>
<path d="M145.694 65.1002C147.527 67.7478 148.993 71.1694 151.845 72.8395C154.126 74.1837 157.629 75.1205 156.651 78.7051C156.122 80.6602 152.497 82.7376 154.33 84.9779C155.633 86.6073 157.629 85.426 158.81 86.4444C160.236 87.7071 158.321 89.8252 157.629 90.925C156.773 92.2692 154.696 93.7763 154.289 95.1205C153.515 97.6052 155.918 97.3201 156.733 98.6643C157.792 100.375 155.714 102.534 154.737 103.878C151.845 107.829 132.374 122.941 127.609 124" fill="#ABAEB5"/>
<path d="M57.2216 32.0656C61.2134 26.1185 65.1238 19.7234 72.0892 16.9943C73.5963 16.3833 75.4293 15.6501 76.081 17.2387C76.7328 18.868 74.9405 19.9678 74.9812 21.4749C77.5474 22.4933 79.91 20.5788 82.191 19.5604C83.3723 19.0309 91.5596 15.5686 90.9486 18.7458C90.8264 19.479 89.0749 21.8822 89.6452 22.6154C91.4374 24.9372 94.9405 21.8008 97.1808 22.5747C100.236 23.6745 97.7511 25.5075 97.2216 27.5849C96.4884 30.5584 99.747 30.5991 101.906 31.1694" fill="#ABAEB5"/>
<path d="M152.048 79.5605C152.048 106.933 132.537 135.813 80.7653 135.813C62.3539 135.813 43.4537 130.273 28.7491 118.013C23.1279 113.328 18.8509 107.218 16.2847 100.375C15.9181 99.3568 15.5515 98.2977 15.2256 97.2794C13.3926 91.1287 11.193 85.589 11.3967 78.9902C11.5596 72.9617 13.2704 67.0146 15.9588 61.6378C21.4578 50.7213 30.9894 41.8822 41.7429 36.261C52.578 30.5584 67.4456 26.8517 81.58 26.8517C94.3702 26.8517 109.034 29.092 119.462 33.8578C140.399 43.3893 152.048 61.312 152.048 79.5605Z" fill="#ABAEB5"/>
<path d="M157.547 90.9657C158.24 89.8659 160.195 87.7478 158.729 86.4851C157.547 85.426 155.592 86.648 154.248 85.0187C152.415 82.7784 156.04 80.701 156.57 78.7458C157.588 75.1613 154.044 74.2244 151.763 72.8802C151.641 72.7987 151.519 72.7173 151.397 72.6358C148.831 56.9128 137.629 42.2081 119.462 33.8985C117.629 33.0431 115.633 32.3099 113.596 31.6174C96.8142 49.7844 88.5861 71.6989 84.1055 95.7722C84.2684 96.0981 84.2684 96.5054 84.0647 96.872C83.8203 97.2794 83.2501 97.5645 82.7613 97.483C82.5169 97.483 82.3132 97.4423 82.1095 97.3201C80.5617 96.3425 80.3987 96.261 79.1767 95.1205C78.8916 94.8354 78.7694 94.5502 78.8101 94.2651C78.5657 93.98 78.3621 93.7356 78.1584 93.4504C77.5881 93.4912 77.0179 93.2875 76.8549 92.5543C76.7327 92.147 76.6105 91.7804 76.5291 91.3731C76.4069 91.4138 76.2439 91.4545 76.081 91.4545C75.1849 91.4545 74.7775 90.6806 74.8997 89.9881C73.7999 89.4993 73.9629 87.5849 75.3885 87.5441C69.1564 68.2773 56.3254 49.1327 39.747 37.4016C29.8488 43.0635 21.2134 51.4545 16.0403 61.6378C15.6737 62.371 15.3071 63.1042 14.9812 63.8782C13.5148 66.2407 12.0892 68.929 9.6859 70.314C7.40484 71.6582 3.90178 72.595 4.87938 76.1796C5.40891 78.1348 9.03417 80.2122 7.20117 82.4525C5.85698 84.0818 3.90178 82.9005 2.72052 83.9189C1.25412 85.1816 3.20932 87.2997 3.90178 88.3995C4.75718 89.7437 6.83457 91.2509 7.2419 92.5951C8.01584 95.0798 5.61258 94.7946 4.79791 96.1388C3.73885 97.8496 5.81624 100.008 6.79384 101.353C8.74903 104.041 18.2806 111.821 25.7348 116.872C25.7755 116.913 25.8162 116.953 25.857 116.953C40.5617 129.214 62.3539 135.732 80.7653 135.732C101.661 135.732 117.303 131.006 128.505 123.634C134.492 121.19 151.967 107.585 154.655 103.837C155.633 102.452 157.71 100.334 156.651 98.6235C155.837 97.2793 153.433 97.6052 154.207 95.0798C154.655 93.817 156.733 92.2692 157.547 90.9657Z" fill="#D3D5DB"/>
<path d="M61.8244 105.711C64.8387 97.483 66.468 88.7661 66.1421 80.0492C65.9385 74.6317 64.9609 68.7661 61.9466 64.204C58.6879 59.2753 52.2521 55.2834 46.2643 58.705C40.8061 61.8007 34.7776 67.8293 31.2338 72.8802C23.413 84.0003 18.5657 94.3058 12.6187 106.567C12.578 106.648 12.578 107.422 12.5372 107.503C16.4069 110.762 27.7307 119.112 27.7714 119.153C32.0484 122.697 39.0953 126.892 48.7083 129.784C54.0444 122.534 58.6472 114.347 61.8244 105.711Z" fill="#525656"/>
<path d="M152.782 105.467C148.301 95.5279 143.25 85.6297 136.855 76.7499C133.067 71.4953 128.871 66.2814 123.739 62.2896C119.421 58.9495 110.215 52.758 104.594 56.4647C99.9507 59.5604 98.4435 66.2815 98.1177 71.3731C97.4659 82.0452 99.0953 91.9026 104.228 101.353C108.179 108.685 112.822 116.098 118.81 121.923C119.38 122.453 123.657 126.811 124.309 126.444C130.541 123.023 143.087 116.954 153.556 106.159C153.474 106.037 152.863 105.589 152.782 105.467Z" fill="#525656"/>
<path d="M68.9934 33.695C68.8712 33.695 68.7898 33.6542 68.6676 33.6135C68.3824 33.4505 68.301 33.0839 68.4639 32.7988C69.6452 30.8843 71.2745 29.1736 72.1299 28.3182C72.3743 28.0738 72.7409 28.0738 72.9853 28.3182C73.2297 28.5626 73.2297 28.9291 72.9853 29.1735C72.1706 29.9882 70.6228 31.6583 69.4822 33.4505C69.4008 33.6135 69.1971 33.695 68.9934 33.695Z" fill="#D3D5DB"/>
<path d="M80.1136 34.5096C80.0322 34.5096 79.91 34.4689 79.8285 34.4281C79.5434 34.2652 79.4212 33.8986 79.5841 33.6135C80.9283 31.088 83.1279 29.1328 86.0199 27.7886C86.3051 27.6664 86.6717 27.7886 86.7939 28.0738C86.9161 28.3589 86.7939 28.7255 86.5087 28.8477C83.8203 30.0697 81.8651 31.862 80.6024 34.143C80.5617 34.3874 80.358 34.5096 80.1136 34.5096Z" fill="#D3D5DB"/>
<path d="M93.3111 49.1736C93.1482 49.2143 92.9853 49.2143 92.8631 49.1328C92.5779 49.0106 92.4557 48.6441 92.5779 48.3589C93.4333 46.5259 94.5739 44.8151 95.6329 43.1858C95.7959 42.9006 96.2032 42.8192 96.4476 43.0228C96.7327 43.1858 96.8142 43.5931 96.6105 43.8375C95.5515 45.4668 94.4517 47.1369 93.637 48.8477C93.5963 49.0106 93.4333 49.1329 93.3111 49.1736Z" fill="#D3D5DB"/>
<path d="M90.0118 34.7947C89.8489 34.7947 89.7267 34.7132 89.6045 34.591C89.4008 34.3467 89.4008 33.9801 89.6452 33.7357C91.1116 32.3507 92.7817 31.2102 94.411 30.0697C94.6961 29.866 95.0627 29.9475 95.2256 30.2326C95.4293 30.5177 95.3478 30.8843 95.0627 31.0473C93.4741 32.1471 91.8448 33.2876 90.4191 34.591C90.2969 34.754 90.1747 34.7947 90.0118 34.7947Z" fill="#D3D5DB"/>
<path d="M81.3356 48.8069C81.0098 48.8069 80.7654 48.5625 80.7246 48.2367C80.521 45.7112 81.0505 43.3894 82.3947 40.9454C82.5576 40.6603 82.9242 40.5381 83.2093 40.701C83.4945 40.864 83.6167 41.2306 83.4537 41.5157C82.2317 43.756 81.7429 45.8334 81.9466 48.1552C81.9873 48.4811 81.743 48.7662 81.3764 48.8069C81.3356 48.8069 81.3356 48.8069 81.3356 48.8069Z" fill="#D3D5DB"/>
<path d="M73.5556 43.4709C73.2297 43.4709 72.9446 43.1858 72.9446 42.8599C72.9446 41.3528 73.3519 39.8456 73.7185 38.5014C73.8 38.1756 73.8814 37.8497 73.9629 37.5646C74.0444 37.2387 74.3702 37.035 74.6961 37.1165C75.022 37.198 75.2256 37.5239 75.1442 37.8497C75.0627 38.1756 74.9812 38.5015 74.8998 38.8273C74.5332 40.1715 74.1666 41.5157 74.1666 42.9006C74.1666 43.1858 73.8814 43.4709 73.5556 43.4709Z" fill="#D3D5DB"/>
<path d="M75.5515 53.7764C75.2663 53.7764 75.0219 53.5728 74.9405 53.2469C74.7368 51.862 74.5332 50.477 74.3295 48.8477C74.2888 48.5218 74.5332 48.2367 74.859 48.196C75.1849 48.1552 75.47 48.3996 75.5107 48.7255C75.7144 50.3141 75.9181 51.7398 76.1217 53.084C76.1625 53.4098 75.9588 53.6949 75.6329 53.7764C75.5922 53.7764 75.5922 53.7764 75.5515 53.7764Z" fill="#D3D5DB"/>
<path d="M80.1136 63.5523C79.7877 63.5523 79.5026 63.2672 79.5026 62.9413C79.5026 62.2489 79.4619 61.6379 79.4211 60.9862C79.3804 60.3344 79.3397 59.6827 79.3397 58.9495C79.3397 58.6236 79.6248 58.3385 79.9507 58.3385C80.2765 58.3385 80.5617 58.6236 80.5617 58.9495C80.5617 59.642 80.6024 60.2529 80.6431 60.9047C80.6839 61.5564 80.7653 62.2081 80.7653 62.9413C80.7246 63.2672 80.4395 63.5523 80.1136 63.5523Z" fill="#D3D5DB"/>
<path d="M83.1279 68.1145C82.802 68.1145 82.5169 67.8294 82.5169 67.5035C82.5169 66.6889 82.5169 65.8334 82.7205 64.978C82.802 64.6522 83.1279 64.4485 83.4537 64.53C83.7796 64.6115 83.9833 64.9373 83.9018 65.2632C83.7389 65.9964 83.7389 66.7296 83.7389 67.5035C83.6981 67.8294 83.4537 68.1145 83.1279 68.1145Z" fill="#D3D5DB"/>
<path d="M71.4782 56.2204C71.1931 56.2204 70.9079 55.976 70.8672 55.6909C70.7043 54.2245 70.3784 52.8395 70.0525 51.4139L69.8489 50.5992C69.7674 50.2734 69.9711 49.9475 70.2969 49.9067C70.6228 49.8253 70.9487 50.0289 70.9894 50.3548L71.1931 51.1694C71.5189 52.6358 71.8448 54.0208 72.0077 55.5687C72.0485 55.8945 71.8041 56.1796 71.4782 56.2204C71.4782 56.2204 71.5189 56.1796 71.4782 56.2204Z" fill="#D3D5DB"/>
<path d="M67.2012 48.807C67.1604 48.807 67.1604 48.807 67.1197 48.807C66.7938 48.7662 66.5494 48.4811 66.5902 48.1553C66.6716 47.3813 66.7531 46.5666 66.7938 45.7927C66.8346 45.0188 66.8753 44.2041 66.9975 43.3894C67.0382 43.0636 67.3234 42.8192 67.6492 42.8599C67.9751 42.9007 68.2195 43.1858 68.1788 43.5117C68.0973 44.2856 68.0158 45.1002 67.9751 45.8742C67.9344 46.6481 67.8936 47.5035 67.7714 48.2774C67.7714 48.6033 67.4863 48.807 67.2012 48.807Z" fill="#D3D5DB"/>
<path d="M86.5087 50.5992C86.468 50.5992 86.468 50.5992 86.4273 50.5992C86.1014 50.5585 85.857 50.2326 85.9385 49.9067C86.1421 48.5625 86.3458 47.1776 86.3458 45.8334C86.3458 45.5075 86.6309 45.2224 86.9568 45.2224C87.2827 45.2224 87.5678 45.5075 87.5678 45.8334C87.5678 47.2591 87.3641 48.7255 87.1605 50.1104C87.0383 50.3955 86.7939 50.5992 86.5087 50.5992Z" fill="#D3D5DB"/>
<path d="M85.0831 59.5605C84.7572 59.5605 84.4721 59.2754 84.4721 58.9495C84.4721 58.5015 84.5128 58.0941 84.5943 57.6868C84.635 57.2794 84.6757 56.9128 84.6757 56.587C84.6757 56.2611 84.9609 55.976 85.2867 55.976C85.6126 55.976 85.8977 56.2611 85.8977 56.587C85.8977 57.035 85.857 57.4424 85.7755 57.8497C85.7348 58.257 85.6941 58.6237 85.6941 58.9495C85.6941 59.2754 85.4089 59.5605 85.0831 59.5605Z" fill="#D3D5DB"/>
<path d="M90.2562 43.2672C90.1747 43.2672 90.0933 43.2672 90.0525 43.2264C89.7267 43.1042 89.6045 42.7377 89.7267 42.4526C89.9303 42.0045 90.0525 41.4749 90.2154 40.9454C90.3784 40.3751 90.5413 39.8049 90.745 39.2753C90.8672 38.9495 91.1931 38.8273 91.5189 38.9495C91.8448 39.0717 91.967 39.4383 91.8448 39.7234C91.6411 40.1715 91.5189 40.701 91.356 41.2306C91.1931 41.8008 91.0301 42.3711 90.8264 42.9006C90.745 43.1043 90.5006 43.2672 90.2562 43.2672Z" fill="#D3D5DB"/>
<path d="M89.4823 58.9495C89.4415 58.9495 89.4415 58.9495 89.4008 58.9495C89.0749 58.9088 88.8305 58.5829 88.912 58.257C89.0342 57.5645 89.1564 56.7906 89.3193 56.0167C89.4823 55.2835 89.6045 54.5503 89.7267 53.8579C89.7674 53.532 90.0933 53.3283 90.4191 53.369C90.745 53.4098 90.9894 53.7357 90.9079 54.0615C90.8265 54.754 90.6635 55.5279 90.5006 56.3018C90.3377 57.035 90.2155 57.7682 90.0933 58.4607C90.0118 58.7458 89.7674 58.9495 89.4823 58.9495Z" fill="#D3D5DB"/>
<path d="M63.0057 42.6563C62.6798 42.6563 62.3947 42.3711 62.3947 42.0453C62.3947 40.3752 62.5576 38.868 62.7613 37.2795L62.802 36.7907C62.8427 36.4648 63.1279 36.2204 63.4537 36.2611C63.7796 36.3019 64.024 36.587 63.9833 36.9128L63.9425 37.4017C63.7796 38.9495 63.6167 40.4159 63.6167 42.0045C63.6167 42.3711 63.3315 42.6563 63.0057 42.6563Z" fill="#D3D5DB"/>
<path d="M76.2847 104.163C75.5922 107.748 77.2623 111.169 81.1727 111.414C85.0016 111.658 87.2012 107.503 85.9792 104.204C85.6126 103.267 84.1055 103.675 84.4313 104.611C85.3682 107.137 83.9425 109.784 81.1727 109.825C78.3213 109.866 77.3438 106.933 77.7918 104.571C77.9955 103.593 76.4884 103.186 76.2847 104.163Z" fill="#525656"/>
<path d="M132.904 88.8068C132.904 91.6174 127.731 93.8578 121.336 93.8578C114.94 93.8578 109.767 91.5767 109.767 88.8068C109.767 85.9963 114.94 83.7559 121.336 83.7559C127.731 83.7559 132.904 86.037 132.904 88.8068Z" fill="#F0BBB9"/>
<path d="M56.0403 88.3588C56.0403 91.1694 50.8671 93.4097 44.472 93.4097C38.0769 93.4097 32.9038 91.1286 32.9038 88.3588C32.9038 85.5482 38.0769 83.3079 44.472 83.3079C50.8671 83.3079 56.0403 85.5482 56.0403 88.3588Z" fill="#F0BBB9"/>
<path d="M90.2969 90.9658C90.2154 91.9027 89.971 92.8802 89.523 93.6949C87.9344 96.6684 84.7165 99.4383 81.1727 99.4383C76.2032 99.4383 72.3336 93.7764 72.3336 90.9658C72.3336 88.1552 74.9405 84.2855 81.0097 87.2998C81.9466 87.7886 83.4537 85.589 86.9975 86.2407C89.523 86.7295 90.4191 88.8477 90.2969 90.9658Z" fill="#423D33"/>
<path d="M89.4415 89.2143C89.2379 89.9475 88.0566 90.2326 86.8753 89.866C85.6533 89.4994 84.8794 88.6033 85.0831 87.9109C85.2867 87.1777 86.468 86.8925 87.6493 87.2591C88.8305 87.6257 89.6452 88.4811 89.4415 89.2143Z" fill="#F3F5F3"/>
<path d="M43.9018 71.8619C42.8835 77.1979 45.3682 82.2896 51.1931 82.6562C56.855 83.0228 60.1951 76.8313 58.3621 71.9026C57.8326 70.4769 55.5515 71.0879 56.081 72.5136C57.5067 76.2611 55.3886 80.2529 51.1931 80.2936C46.9161 80.3344 45.5311 75.9759 46.1829 72.4729C46.468 71.0065 44.1869 70.3548 43.9018 71.8619Z" fill="white"/>
<path d="M119.421 72.1877C120.439 77.5238 117.955 82.6154 112.13 82.982C106.468 83.3486 103.128 77.1572 104.961 72.2285C105.49 70.8028 107.771 71.4138 107.242 72.8395C105.816 76.5869 107.934 80.5788 112.13 80.6195C116.407 80.6602 117.792 76.3018 117.14 72.7987C116.855 71.3324 119.136 70.6806 119.421 72.1877Z" fill="white"/>
</svg>
